<svg xmlns="http://www.w3.org/2000/svg" width="23" height="24" fill="none"><path fill="#fff" fill-rule="evenodd" d="M19.599 20.45h-3.41v-5.57c0-1.327-.021-3.036-1.772-3.036-1.776 0-2.046 1.448-2.046 2.943v5.664H8.962V8.997h3.27v1.566h.047c.455-.9 1.568-1.85 3.228-1.85 3.454 0 4.093 2.371 4.093 5.456v6.282h-.001ZM5.117 7.434c-.26 0-.517-.053-.757-.156a1.975 1.975 0 0 1-.642-.447 2.072 2.072 0 0 1-.43-.669 2.142 2.142 0 0 1 0-1.58c.099-.25.244-.478.428-.67a1.924 1.924 0 0 1 1.398-.606c.524 0 1.028.217 1.399.603.371.387.58.912.58 1.46a2.11 2.11 0 0 1-.577 1.46 1.938 1.938 0 0 1-1.399.605ZM3.41 20.451h3.414V8.997H3.408l.001 11.454ZM21.298 0H1.697C.76 0 0 .775 0 1.73v20.538C0 23.224.76 24 1.697 24h19.601c.938 0 1.702-.776 1.702-1.732V1.731C23 .775 22.236 0 21.298 0Z" clip-rule="evenodd"/></svg>