<svg xmlns="http://www.w3.org/2000/svg" width="318" height="318" fill="none"><path fill="#AAA" d="M25.738 41.023v-.73l.15-.16c.106-.114.246-.257.42-.43.173-.174.357-.364.55-.57a1520.279 1520.279 0 0 0 1.1-1.14c.247-.254.466-.49.66-.71.2-.22.36-.434.48-.64.12-.207.18-.414.18-.62 0-.414-.104-.75-.31-1.01-.2-.26-.527-.39-.98-.39-.287 0-.537.066-.75.2a1.29 1.29 0 0 0-.48.52c-.107.22-.16.473-.16.76h-.81c0-.447.09-.834.27-1.16a1.94 1.94 0 0 1 .78-.76 2.33 2.33 0 0 1 1.16-.28c.433 0 .806.08 1.12.24.32.153.567.386.74.7.173.306.26.69.26 1.15 0 .313-.077.606-.23.88a3.811 3.811 0 0 1-.55.75c-.213.226-.41.433-.59.62l-.42.42a427.723 427.723 0 0 1-1.45 1.5l-.15.16h3.63v.7h-4.62Zm8.276.12c-.64 0-1.153-.16-1.54-.48-.387-.32-.667-.754-.84-1.3a6.075 6.075 0 0 1-.26-1.84c0-.68.087-1.294.26-1.84.173-.547.453-.98.84-1.3.387-.32.9-.48 1.54-.48s1.15.156 1.53.47c.387.313.667.743.84 1.29.173.546.26 1.166.26 1.86 0 .693-.087 1.313-.26 1.86-.173.546-.453.976-.84 1.29-.38.313-.89.47-1.53.47Zm0-.75c.613 0 1.06-.257 1.34-.77.287-.514.43-1.214.43-2.1 0-.887-.143-1.587-.43-2.1-.28-.514-.727-.77-1.34-.77-.607 0-1.057.256-1.35.77-.287.513-.43 1.213-.43 2.1 0 .886.143 1.586.43 2.1.293.513.743.77 1.35.77Zm3.716.63v-.73l.15-.16c.107-.114.247-.257.42-.43.173-.174.357-.364.55-.57a1520.279 1520.279 0 0 0 1.1-1.14c.247-.254.467-.49.66-.71.2-.22.36-.434.48-.64.12-.207.18-.414.18-.62 0-.414-.103-.75-.31-1.01-.2-.26-.527-.39-.98-.39-.287 0-.537.066-.75.2a1.29 1.29 0 0 0-.48.52c-.107.22-.16.473-.16.76h-.81c0-.447.09-.834.27-1.16.187-.327.447-.58.78-.76a2.33 2.33 0 0 1 1.16-.28c.433 0 .807.08 1.12.24.32.153.567.386.74.7.173.306.26.69.26 1.15 0 .313-.077.606-.23.88a3.811 3.811 0 0 1-.55.75c-.213.226-.41.433-.59.62l-.42.42a427.723 427.723 0 0 1-1.45 1.5l-.15.16h3.63v.7h-4.62Zm8.326.12c-.447 0-.85-.08-1.21-.24a2.22 2.22 0 0 1-.86-.7 2.321 2.321 0 0 1-.41-1.07h.82c.08.386.267.7.56.94.293.233.663.35 1.11.35.333 0 .62-.077.86-.23.24-.154.423-.364.55-.63.133-.267.2-.567.2-.9 0-.52-.147-.94-.44-1.26-.293-.32-.673-.48-1.14-.48-.387 0-.717.086-.99.26-.273.173-.473.4-.6.68h-.8l.6-3.84h3.67v.73h-3.02l-.41 2.13a1.8 1.8 0 0 1 .66-.48c.287-.127.613-.19.98-.19.46 0 .86.106 1.2.32.347.213.617.503.81.87.093.186.163.383.21.59.053.206.08.426.08.66 0 .486-.103.916-.31 1.29-.2.373-.483.666-.85.88-.36.213-.783.32-1.27.32Z"/><path stroke="#AAA" stroke-dasharray="6 6" d="M36.5 276.954V48.923" opacity=".1"/><path fill="#AAA" d="M86.738 41.023v-.73l.15-.16c.106-.114.246-.257.42-.43.173-.174.356-.364.55-.57a1520.279 1520.279 0 0 0 1.1-1.14c.246-.254.466-.49.66-.71.2-.22.36-.434.48-.64.12-.207.18-.414.18-.62 0-.414-.104-.75-.31-1.01-.2-.26-.527-.39-.98-.39-.287 0-.537.066-.75.2a1.29 1.29 0 0 0-.48.52c-.107.22-.16.473-.16.76h-.81c0-.447.09-.834.27-1.16.186-.327.446-.58.78-.76a2.33 2.33 0 0 1 1.16-.28c.433 0 .806.08 1.12.24.32.153.567.386.74.7.173.306.26.69.26 1.15 0 .313-.077.606-.23.88a3.811 3.811 0 0 1-.55.75c-.213.226-.41.433-.59.62l-.42.42a427.723 427.723 0 0 1-1.45 1.5l-.15.16h3.63v.7h-4.62Zm8.276.12c-.64 0-1.153-.16-1.54-.48-.387-.32-.667-.754-.84-1.3a6.075 6.075 0 0 1-.26-1.84c0-.68.087-1.294.26-1.84.173-.547.453-.98.84-1.3.387-.32.9-.48 1.54-.48s1.15.156 1.53.47c.387.313.667.743.84 1.29.173.546.26 1.166.26 1.86 0 .693-.087 1.313-.26 1.86-.173.546-.453.976-.84 1.29-.38.313-.89.47-1.53.47Zm0-.75c.613 0 1.06-.257 1.34-.77.287-.514.43-1.214.43-2.1 0-.887-.143-1.587-.43-2.1-.28-.514-.727-.77-1.34-.77-.607 0-1.057.256-1.35.77-.287.513-.43 1.213-.43 2.1 0 .886.143 1.586.43 2.1.293.513.743.77 1.35.77Zm3.716.63v-.73l.15-.16c.107-.114.247-.257.42-.43.173-.174.357-.364.55-.57l.59-.61.51-.53c.247-.254.467-.49.66-.71.2-.22.36-.434.48-.64.12-.207.18-.414.18-.62 0-.414-.103-.75-.31-1.01-.2-.26-.527-.39-.98-.39-.287 0-.537.066-.75.2-.207.126-.367.3-.48.52-.107.22-.16.473-.16.76h-.81c0-.447.09-.834.27-1.16.187-.327.447-.58.78-.76a2.33 2.33 0 0 1 1.16-.28c.433 0 .807.08 1.12.24.32.153.567.386.74.7.173.306.26.69.26 1.15 0 .313-.077.606-.23.88a3.811 3.811 0 0 1-.55.75c-.213.226-.41.433-.59.62l-.42.42-.53.55-.52.54c-.16.166-.293.303-.4.41l-.15.16h3.63v.7h-4.62Zm9.126 0v-1.5h-3.44v-.65l2.43-4.85h.83l-2.37 4.76h2.59v-1.99h.79v1.99h1.02v.74h-1.02v1.5h-.83Z"/><path stroke="#AAA" stroke-dasharray="6 6" d="M97.5 276.954V48.923" opacity=".1"/><path fill="#AAA" d="M147.738 41.023v-.73l.15-.16c.106-.114.246-.257.42-.43.173-.174.356-.364.55-.57l.59-.61.51-.53c.246-.254.466-.49.66-.71.2-.22.36-.434.48-.64.12-.207.18-.414.18-.62 0-.414-.104-.75-.31-1.01-.2-.26-.527-.39-.98-.39-.287 0-.537.066-.75.2-.207.126-.367.3-.48.52-.107.22-.16.473-.16.76h-.81c0-.447.09-.834.27-1.16.186-.327.446-.58.78-.76a2.33 2.33 0 0 1 1.16-.28c.433 0 .806.08 1.12.24.32.153.566.386.74.7.173.306.26.69.26 1.15 0 .313-.077.606-.23.88a3.852 3.852 0 0 1-.55.75c-.214.226-.41.433-.59.62l-.42.42-.53.55c-.18.186-.354.366-.52.54-.16.166-.294.303-.4.41l-.15.16h3.63v.7h-4.62Zm8.276.12c-.64 0-1.153-.16-1.54-.48-.387-.32-.667-.754-.84-1.3a6.084 6.084 0 0 1-.26-1.84c0-.68.087-1.294.26-1.84.173-.547.453-.98.84-1.3.387-.32.9-.48 1.54-.48s1.15.156 1.53.47c.387.313.667.743.84 1.29.173.546.26 1.166.26 1.86 0 .693-.087 1.313-.26 1.86-.173.546-.453.976-.84 1.29-.38.313-.89.47-1.53.47Zm0-.75c.613 0 1.06-.257 1.34-.77.287-.514.43-1.214.43-2.1 0-.887-.143-1.587-.43-2.1-.28-.514-.727-.77-1.34-.77-.607 0-1.057.256-1.35.77-.287.513-.43 1.213-.43 2.1 0 .886.143 1.586.43 2.1.293.513.743.77 1.35.77Zm3.716.63v-.73l.15-.16c.107-.114.247-.257.42-.43.173-.174.357-.364.55-.57l.59-.61.51-.53c.247-.254.467-.49.66-.71.2-.22.36-.434.48-.64.12-.207.18-.414.18-.62 0-.414-.103-.75-.31-1.01-.2-.26-.527-.39-.98-.39-.287 0-.537.066-.75.2-.207.126-.367.3-.48.52-.107.22-.16.473-.16.76h-.81c0-.447.09-.834.27-1.16.187-.327.447-.58.78-.76a2.33 2.33 0 0 1 1.16-.28c.433 0 .807.08 1.12.24.32.153.567.386.74.7.173.306.26.69.26 1.15 0 .313-.077.606-.23.88a3.811 3.811 0 0 1-.55.75c-.213.226-.41.433-.59.62l-.42.42-.53.55-.52.54c-.16.166-.293.303-.4.41l-.15.16h3.63v.7h-4.62Zm8.296.12c-.46 0-.867-.08-1.22-.24-.353-.167-.64-.4-.86-.7a2.32 2.32 0 0 1-.39-1.08h.81c.087.366.267.676.54.93.273.246.647.37 1.12.37.513 0 .907-.144 1.18-.43.28-.287.42-.65.42-1.09 0-.474-.147-.834-.44-1.08-.287-.247-.67-.37-1.15-.37-.127 0-.253.016-.38.05-.127.033-.25.086-.37.16l-.52-.59 2.41-2.36h-3.33v-.69h4.36v.66l-2.18 2.15c.3-.034.593-.01.88.07a2.1 2.1 0 0 1 .77.37c.233.173.417.396.55.67.14.273.21.59.21.95 0 .473-.103.88-.31 1.22a2 2 0 0 1-.84.77c-.36.173-.78.26-1.26.26Z"/><path stroke="#AAA" stroke-dasharray="6 6" d="M158.5 276.954V48.923" opacity=".1"/><path fill="#AAA" d="M208.738 41.023v-.73l.15-.16c.106-.114.246-.257.42-.43.173-.174.356-.364.55-.57l.59-.61.51-.53c.246-.254.466-.49.66-.71.2-.22.36-.434.48-.64.12-.207.18-.414.18-.62 0-.414-.104-.75-.31-1.01-.2-.26-.527-.39-.98-.39-.287 0-.537.066-.75.2-.207.126-.367.3-.48.52-.107.22-.16.473-.16.76h-.81c0-.447.09-.834.27-1.16.186-.327.446-.58.78-.76a2.33 2.33 0 0 1 1.16-.28c.433 0 .806.08 1.12.24.32.153.566.386.74.7.173.306.26.69.26 1.15 0 .313-.077.606-.23.88a3.852 3.852 0 0 1-.55.75c-.214.226-.41.433-.59.62l-.42.42-.53.55c-.18.186-.354.366-.52.54-.16.166-.294.303-.4.41l-.15.16h3.63v.7h-4.62Zm8.276.12c-.64 0-1.153-.16-1.54-.48-.387-.32-.667-.754-.84-1.3a6.084 6.084 0 0 1-.26-1.84c0-.68.087-1.294.26-1.84.173-.547.453-.98.84-1.3.387-.32.9-.48 1.54-.48s1.15.156 1.53.47c.387.313.667.743.84 1.29.173.546.26 1.166.26 1.86 0 .693-.087 1.313-.26 1.86-.173.546-.453.976-.84 1.29-.38.313-.89.47-1.53.47Zm0-.75c.613 0 1.06-.257 1.34-.77.287-.514.43-1.214.43-2.1 0-.887-.143-1.587-.43-2.1-.28-.514-.727-.77-1.34-.77-.607 0-1.057.256-1.35.77-.287.513-.43 1.213-.43 2.1 0 .886.143 1.586.43 2.1.293.513.743.77 1.35.77Zm3.716.63v-.73l.15-.16c.107-.114.247-.257.42-.43.173-.174.357-.364.55-.57l.59-.61.51-.53c.247-.254.467-.49.66-.71.2-.22.36-.434.48-.64.12-.207.18-.414.18-.62 0-.414-.103-.75-.31-1.01-.2-.26-.527-.39-.98-.39-.287 0-.537.066-.75.2-.207.126-.367.3-.48.52-.107.22-.16.473-.16.76h-.81c0-.447.09-.834.27-1.16.187-.327.447-.58.78-.76a2.33 2.33 0 0 1 1.16-.28c.433 0 .807.08 1.12.24.32.153.567.386.74.7.173.306.26.69.26 1.15 0 .313-.077.606-.23.88a3.811 3.811 0 0 1-.55.75c-.213.226-.41.433-.59.62l-.42.42-.53.55-.52.54c-.16.166-.293.303-.4.41l-.15.16h3.63v.7h-4.62Zm5.996 0v-.73l.15-.16c.107-.114.247-.257.42-.43.173-.174.357-.364.55-.57l.59-.61.51-.53c.247-.254.467-.49.66-.71.2-.22.36-.434.48-.64.12-.207.18-.414.18-.62 0-.414-.103-.75-.31-1.01-.2-.26-.527-.39-.98-.39-.287 0-.537.066-.75.2-.207.126-.367.3-.48.52-.107.22-.16.473-.16.76h-.81c0-.447.09-.834.27-1.16.187-.327.447-.58.78-.76a2.33 2.33 0 0 1 1.16-.28c.433 0 .807.08 1.12.24.32.153.567.386.74.7.173.306.26.69.26 1.15 0 .313-.077.606-.23.88a3.811 3.811 0 0 1-.55.75c-.213.226-.41.433-.59.62l-.42.42-.53.55-.52.54c-.16.166-.293.303-.4.41l-.15.16h3.63v.7h-4.62Z"/><path stroke="#AAA" stroke-dasharray="6 6" d="M219.5 276.954V48.923" opacity=".1"/><path fill="#AAA" d="M269.738 41.023v-.73l.15-.16c.106-.114.246-.257.42-.43.173-.174.356-.364.55-.57l.59-.61.51-.53c.246-.254.466-.49.66-.71.2-.22.36-.434.48-.64.12-.207.18-.414.18-.62 0-.414-.104-.75-.31-1.01-.2-.26-.527-.39-.98-.39-.287 0-.537.066-.75.2-.207.126-.367.3-.48.52-.107.22-.16.473-.16.76h-.81c0-.447.09-.834.27-1.16.186-.327.446-.58.78-.76a2.33 2.33 0 0 1 1.16-.28c.433 0 .806.08 1.12.24.32.153.566.386.74.7.173.306.26.69.26 1.15 0 .313-.077.606-.23.88a3.852 3.852 0 0 1-.55.75c-.214.226-.41.433-.59.62l-.42.42-.53.55c-.18.186-.354.366-.52.54-.16.166-.294.303-.4.41l-.15.16h3.63v.7h-4.62Zm8.276.12c-.64 0-1.153-.16-1.54-.48-.387-.32-.667-.754-.84-1.3a6.084 6.084 0 0 1-.26-1.84c0-.68.087-1.294.26-1.84.173-.547.453-.98.84-1.3.387-.32.9-.48 1.54-.48s1.15.156 1.53.47c.387.313.667.743.84 1.29.173.546.26 1.166.26 1.86 0 .693-.087 1.313-.26 1.86-.173.546-.453.976-.84 1.29-.38.313-.89.47-1.53.47Zm0-.75c.613 0 1.06-.257 1.34-.77.287-.514.43-1.214.43-2.1 0-.887-.143-1.587-.43-2.1-.28-.514-.727-.77-1.34-.77-.607 0-1.057.256-1.35.77-.287.513-.43 1.213-.43 2.1 0 .886.143 1.586.43 2.1.293.513.743.77 1.35.77Zm3.716.63v-.73l.15-.16c.107-.114.247-.257.42-.43.173-.174.357-.364.55-.57l.59-.61.51-.53c.247-.254.467-.49.66-.71.2-.22.36-.434.48-.64.12-.207.18-.414.18-.62 0-.414-.103-.75-.31-1.01-.2-.26-.527-.39-.98-.39-.287 0-.537.066-.75.2-.207.126-.367.3-.48.52-.107.22-.16.473-.16.76h-.81c0-.447.09-.834.27-1.16.187-.327.447-.58.78-.76a2.33 2.33 0 0 1 1.16-.28c.433 0 .807.08 1.12.24.32.153.567.386.74.7.173.306.26.69.26 1.15 0 .313-.077.606-.23.88a3.811 3.811 0 0 1-.55.75c-.213.226-.41.433-.59.62l-.42.42-.53.55-.52.54c-.16.166-.293.303-.4.41l-.15.16h3.63v.7h-4.62Zm6.156 0v-.69h2.15v-5.35l-2.12.57v-.59l2.49-.94h.44v6.31h1.78v.69h-4.74Z"/><path stroke="#AAA" stroke-dasharray="6 6" d="M280.5 276.954V48.923" opacity=".1"/><path fill="url(#a)" d="M39 50.996H0V318h318V184.083h-62.5L152 98.261H96L39 50.996Z" opacity=".1"/><path stroke="#AAA" stroke-width="6" d="M0 50.996h37.5L94 97.846h57.5l104 86.237H318"/><path fill="#fff" d="M44.24 257.128v-3.696c-1.952-.256-3.696-.816-5.232-1.68s-2.752-2.032-3.648-3.504c-.896-1.504-1.36-3.296-1.392-5.376h5.712c.032 1.44.448 2.688 1.248 3.744.832 1.024 1.936 1.712 3.312 2.064v-10.848l-.72-.24c-2.016-.672-3.664-1.456-4.944-2.352-1.28-.896-2.224-1.92-2.832-3.072-.576-1.152-.864-2.448-.864-3.888 0-1.856.4-3.44 1.2-4.752.8-1.344 1.904-2.4 3.312-3.168 1.44-.8 3.056-1.28 4.848-1.44v-3.888h3.312v3.888c1.792.16 3.392.64 4.8 1.44 1.44.8 2.592 1.872 3.456 3.216.864 1.344 1.312 2.944 1.344 4.8h-5.808a4.645 4.645 0 0 0-1.008-2.928c-.672-.864-1.6-1.456-2.784-1.776v9.792l1.2.432c1.056.352 2.128.768 3.216 1.248a11.69 11.69 0 0 1 3.024 1.872c.928.736 1.68 1.664 2.256 2.784.576 1.088.864 2.448.864 4.08 0 1.92-.48 3.584-1.44 4.992-.928 1.376-2.192 2.464-3.792 3.264-1.568.8-3.344 1.264-5.328 1.392v3.6H44.24Zm3.312-8.208c1.44-.16 2.592-.64 3.456-1.44.896-.832 1.344-1.92 1.344-3.264 0-.864-.144-1.6-.432-2.208-.288-.608-.784-1.136-1.488-1.584-.704-.48-1.664-.944-2.88-1.392v9.888Zm-3.312-16.752v-8.592c-1.056.224-1.936.704-2.64 1.44-.704.704-1.056 1.664-1.056 2.88 0 1.024.304 1.856.912 2.496.608.608 1.536 1.2 2.784 1.776Zm28.593 21.408c-2.336 0-4.384-.4-6.144-1.2-1.76-.832-3.152-2.032-4.176-3.6s-1.6-3.472-1.728-5.712h5.28c.16 1.664.816 3.056 1.968 4.176 1.184 1.12 2.784 1.68 4.8 1.68s3.616-.56 4.8-1.68c1.184-1.12 1.776-2.672 1.776-4.656 0-1.984-.608-3.488-1.824-4.512-1.216-1.056-2.784-1.584-4.704-1.584-.672 0-1.312.096-1.92.288-.576.16-1.136.4-1.68.72l-3.072-3.6 10.656-9.888H61.937V219.4h21.648v4.464l-9.216 8.592c1.568.032 2.976.304 4.224.816 1.248.512 2.32 1.216 3.216 2.112a8.885 8.885 0 0 1 2.112 3.168c.48 1.216.72 2.544.72 3.984 0 2.304-.496 4.288-1.488 5.952-.992 1.664-2.384 2.928-4.176 3.792-1.76.864-3.808 1.296-6.144 1.296Zm26.576 0c-3.072 0-5.536-.768-7.392-2.304-1.856-1.536-3.2-3.616-4.032-6.24-.832-2.624-1.248-5.568-1.248-8.832 0-3.264.416-6.208 1.248-8.832.832-2.624 2.176-4.704 4.032-6.24 1.856-1.536 4.32-2.304 7.392-2.304s5.52.752 7.344 2.256c1.856 1.504 3.2 3.568 4.032 6.192.832 2.624 1.248 5.6 1.248 8.928 0 3.328-.416 6.304-1.248 8.928-.832 2.624-2.176 4.688-4.032 6.192-1.824 1.504-4.272 2.256-7.344 2.256Zm0-4.848c2.464 0 4.256-1.12 5.376-3.36 1.152-2.24 1.728-5.296 1.728-9.168 0-3.872-.576-6.928-1.728-9.168-1.12-2.24-2.912-3.36-5.376-3.36-2.432 0-4.224 1.12-5.376 3.36-1.152 2.24-1.728 5.296-1.728 9.168 0 3.872.576 6.928 1.728 9.168 1.152 2.24 2.944 3.36 5.376 3.36ZM115.185 253v-33.6h12.336c3.392 0 6 .768 7.824 2.304 1.856 1.536 2.784 3.552 2.784 6.048 0 1.856-.464 3.392-1.392 4.608-.928 1.216-2.08 2.08-3.456 2.592a10.46 10.46 0 0 1 3.264 1.92 9.107 9.107 0 0 1 2.256 2.928c.576 1.12.864 2.352.864 3.696 0 1.792-.416 3.408-1.248 4.848-.832 1.44-2.064 2.576-3.696 3.408-1.6.832-3.6 1.248-6 1.248h-13.536Zm5.472-4.608h7.296c2.016 0 3.552-.448 4.608-1.344 1.056-.896 1.584-2.24 1.584-4.032 0-1.792-.56-3.136-1.68-4.032-1.12-.896-2.656-1.344-4.608-1.344h-7.2v10.752Zm0-15.312h6.432c1.856 0 3.232-.384 4.128-1.152.896-.8 1.344-1.936 1.344-3.408 0-1.44-.448-2.544-1.344-3.312-.896-.8-2.304-1.2-4.224-1.2h-6.336v9.072Z"/><path fill="#AAA" d="M33.036 281v-9.8h6.062v.966h-4.886v3.178h4.27v.952h-4.27v3.738h4.886V281h-6.062Zm7.132 0 2.408-3.472-2.408-3.472h1.274l1.946 2.87 1.96-2.87h1.26l-2.408 3.472L46.608 281h-1.26l-1.96-2.87-1.946 2.87h-1.274Zm7.673 3.08v-10.024h1.064l.112 1.148c.224-.336.541-.639.952-.91.42-.271.952-.406 1.596-.406.7 0 1.307.159 1.82.476.513.317.91.751 1.19 1.302.28.551.42 1.176.42 1.876 0 .691-.14 1.311-.42 1.862-.28.551-.681.985-1.204 1.302-.513.308-1.12.462-1.82.462-.57 0-1.078-.117-1.526-.35a2.428 2.428 0 0 1-1.008-.98v4.242h-1.176Zm3.584-3.934c.476 0 .891-.107 1.246-.322.355-.224.63-.532.826-.924a2.97 2.97 0 0 0 .308-1.372c0-.495-.098-.938-.294-1.33a2.158 2.158 0 0 0-.812-.938c-.355-.233-.78-.35-1.274-.35-.467 0-.882.112-1.246.336a2.267 2.267 0 0 0-.84.91c-.196.392-.294.849-.294 1.372 0 .485.098.929.294 1.33.196.392.471.705.826.938.355.233.775.35 1.26.35Zm8.329 1.022a3.46 3.46 0 0 1-1.75-.448 3.235 3.235 0 0 1-1.218-1.26c-.299-.551-.448-1.195-.448-1.932 0-.728.14-1.363.42-1.904.29-.551.69-.975 1.204-1.274.523-.308 1.13-.462 1.82-.462.653 0 1.223.145 1.708.434a3.05 3.05 0 0 1 1.134 1.176c.28.485.42 1.031.42 1.638v.308c0 .075-.005.191-.014.35H57.5c.028.457.135.868.322 1.232.196.355.457.635.784.84a2.16 2.16 0 0 0 1.148.308c.485 0 .891-.112 1.218-.336a1.92 1.92 0 0 0 .714-.91h1.162a3.083 3.083 0 0 1-.602 1.148c-.28.336-.63.602-1.05.798-.41.196-.891.294-1.442.294Zm-2.24-4.284h4.368c-.028-.625-.243-1.115-.644-1.47s-.896-.532-1.484-.532c-.56 0-1.06.173-1.498.518-.43.336-.677.831-.742 1.484Zm10.28 4.284a3.566 3.566 0 0 1-1.777-.448 3.303 3.303 0 0 1-1.246-1.26c-.308-.551-.462-1.195-.462-1.932 0-.719.15-1.349.448-1.89.298-.551.71-.98 1.232-1.288.522-.308 1.124-.462 1.806-.462.821 0 1.512.215 2.072.644.57.429.928 1.003 1.078 1.722H69.74a1.518 1.518 0 0 0-.686-.994c-.364-.243-.789-.364-1.274-.364-.495 0-.91.121-1.246.364a2.327 2.327 0 0 0-.77.966 3.335 3.335 0 0 0-.252 1.302c0 .513.098.971.294 1.372.196.401.462.714.798.938.345.224.737.336 1.176.336.485 0 .91-.117 1.274-.35.364-.243.592-.583.686-1.022h1.204a2.778 2.778 0 0 1-.574 1.232c-.29.355-.654.635-1.092.84a3.6 3.6 0 0 1-1.484.294Zm7.4-.168c-.634 0-1.134-.154-1.498-.462-.364-.308-.546-.863-.546-1.666v-3.822h-1.204v-.994h1.204v-1.666h1.176v1.666h1.946v.994h-1.946v3.822c0 .439.089.737.266.896.178.149.49.224.938.224h.742V281h-1.078Zm5.601.168a3.46 3.46 0 0 1-1.75-.448 3.235 3.235 0 0 1-1.218-1.26c-.299-.551-.448-1.195-.448-1.932 0-.728.14-1.363.42-1.904.29-.551.69-.975 1.204-1.274.523-.308 1.13-.462 1.82-.462.653 0 1.223.145 1.708.434a3.05 3.05 0 0 1 1.134 1.176c.28.485.42 1.031.42 1.638v.308c0 .075-.005.191-.014.35h-5.53c.028.457.135.868.322 1.232.196.355.457.635.784.84a2.16 2.16 0 0 0 1.148.308c.485 0 .891-.112 1.218-.336a1.92 1.92 0 0 0 .714-.91h1.162a3.083 3.083 0 0 1-.602 1.148c-.28.336-.63.602-1.05.798-.41.196-.891.294-1.442.294Zm-2.24-4.284h4.368c-.028-.625-.243-1.115-.644-1.47s-.896-.532-1.484-.532c-.56 0-1.06.173-1.498.518-.43.336-.677.831-.742 1.484Zm10.239 4.284c-.71 0-1.32-.163-1.834-.49a3.306 3.306 0 0 1-1.19-1.316 4.02 4.02 0 0 1-.42-1.848c0-.672.135-1.283.406-1.834.28-.551.676-.985 1.19-1.302.513-.327 1.134-.49 1.862-.49.57 0 1.073.117 1.512.35.438.233.78.56 1.022.98V271.2h1.176v9.8h-1.064l-.112-1.148c-.224.336-.546.639-.966.91-.42.271-.948.406-1.582.406Zm.126-1.022c.513 0 .947-.117 1.302-.35.354-.243.62-.56.798-.952.186-.401.28-.84.28-1.316a3.09 3.09 0 0 0-.28-1.344 2.17 2.17 0 0 0-.812-.924c-.355-.233-.784-.35-1.288-.35-.448 0-.85.107-1.204.322a2.36 2.36 0 0 0-.854.91c-.206.383-.308.845-.308 1.386 0 .541.107 1.008.322 1.4.214.392.5.695.854.91.364.205.76.308 1.19.308Zm12.107.854-3.682-9.8h1.274l3.094 8.554 3.122-8.554h1.246l-3.682 9.8h-1.372Zm7.872.168c-.476 0-.91-.079-1.302-.238a2.127 2.127 0 0 1-.938-.714c-.224-.327-.336-.723-.336-1.19 0-.541.14-.971.42-1.288.28-.327.649-.56 1.106-.7a4.899 4.899 0 0 1 1.498-.224h1.876c0-.485-.084-.868-.252-1.148a1.399 1.399 0 0 0-.63-.602 2.041 2.041 0 0 0-.868-.182c-.457 0-.854.112-1.19.336-.327.215-.532.551-.616 1.008h-1.204c.047-.504.215-.929.504-1.274a2.731 2.731 0 0 1 1.092-.784c.448-.187.919-.28 1.414-.28.7 0 1.265.131 1.694.392.429.252.742.593.938 1.022.196.429.294.905.294 1.428v2.128c0 .345.042.607.126.784.084.177.299.285.644.322V281a2.94 2.94 0 0 1-.84-.112 1.622 1.622 0 0 1-.644-.392 1.677 1.677 0 0 1-.364-.728 3.06 3.06 0 0 1-.966.994c-.401.271-.887.406-1.456.406Zm.182-.994c.467 0 .859-.117 1.176-.35a2.26 2.26 0 0 0 .714-.924c.168-.373.252-.761.252-1.162v-.014h-1.778c-.327 0-.635.037-.924.112a1.342 1.342 0 0 0-.7.378c-.177.177-.266.429-.266.756 0 .42.149.728.448.924.299.187.658.28 1.078.28Zm5.506.826v-9.8h1.176v9.8h-1.176Zm5.652.168c-.542 0-1.018-.107-1.428-.322a2.286 2.286 0 0 1-.938-1.008c-.224-.457-.336-1.031-.336-1.722v-4.06h1.176v3.934c0 .719.149 1.26.448 1.624.298.364.746.546 1.344.546.597 0 1.092-.215 1.484-.644.401-.439.602-1.059.602-1.862v-3.598h1.176V281h-1.064l-.07-1.246a2.52 2.52 0 0 1-.966 1.036c-.42.252-.896.378-1.428.378Zm7.773 0c-.476 0-.91-.079-1.302-.238a2.133 2.133 0 0 1-.938-.714c-.224-.327-.336-.723-.336-1.19 0-.541.14-.971.42-1.288.28-.327.649-.56 1.106-.7a4.899 4.899 0 0 1 1.498-.224h1.876c0-.485-.084-.868-.252-1.148a1.389 1.389 0 0 0-.63-.602 2.038 2.038 0 0 0-.868-.182c-.457 0-.854.112-1.19.336-.326.215-.532.551-.616 1.008h-1.204c.047-.504.215-.929.504-1.274.29-.345.654-.607 1.092-.784.448-.187.92-.28 1.414-.28.7 0 1.265.131 1.694.392.43.252.742.593.938 1.022.196.429.294.905.294 1.428v2.128c0 .345.042.607.126.784.084.177.299.285.644.322V281a2.94 2.94 0 0 1-.84-.112 1.629 1.629 0 0 1-.644-.392 1.677 1.677 0 0 1-.364-.728 3.06 3.06 0 0 1-.966.994c-.401.271-.886.406-1.456.406Zm.182-.994c.467 0 .859-.117 1.176-.35.318-.243.556-.551.714-.924.168-.373.252-.761.252-1.162v-.014h-1.778c-.326 0-.634.037-.924.112a1.346 1.346 0 0 0-.7.378c-.177.177-.266.429-.266.756 0 .42.15.728.448.924.299.187.658.28 1.078.28Zm8.059.826c-.635 0-1.134-.154-1.498-.462-.364-.308-.546-.863-.546-1.666v-3.822h-1.204v-.994h1.204v-1.666h1.176v1.666h1.946v.994h-1.946v3.822c0 .439.089.737.266.896.177.149.49.224.938.224h.742V281h-1.078Zm3.384-8.484a.828.828 0 0 1-.588-.224.828.828 0 0 1-.224-.588.76.76 0 0 1 .224-.56.828.828 0 0 1 .588-.224.81.81 0 0 1 .574.224.735.735 0 0 1 .238.56.799.799 0 0 1-.238.588.81.81 0 0 1-.574.224Zm-.588 8.484v-6.944h1.176V281h-1.176Zm6.43.168c-.635 0-1.218-.14-1.75-.42a3.265 3.265 0 0 1-1.274-1.246c-.318-.551-.476-1.213-.476-1.988 0-.737.154-1.377.462-1.918a3.371 3.371 0 0 1 1.274-1.26 3.7 3.7 0 0 1 1.82-.448c.644 0 1.232.14 1.764.42.541.28.975.691 1.302 1.232.326.541.49 1.199.49 1.974 0 .709-.154 1.339-.462 1.89a3.385 3.385 0 0 1-1.288 1.302c-.542.308-1.162.462-1.862.462Zm0-1.022c.457 0 .868-.107 1.232-.322.364-.224.653-.532.868-.924.214-.392.322-.854.322-1.386a3.1 3.1 0 0 0-.28-1.344 2.178 2.178 0 0 0-.812-.924c-.355-.224-.784-.336-1.288-.336-.514 0-.948.117-1.302.35a2.194 2.194 0 0 0-.784.938 3.148 3.148 0 0 0-.266 1.316c0 .616.112 1.12.336 1.512.224.383.513.667.868.854.354.177.723.266 1.106.266Zm5.243.854v-6.944h1.064l.07 1.246a2.52 2.52 0 0 1 .966-1.036c.42-.252.896-.378 1.428-.378.821 0 1.475.252 1.96.756.495.495.742 1.26.742 2.296V281h-1.176v-3.934c0-.719-.149-1.26-.448-1.624-.299-.364-.747-.546-1.344-.546-.597 0-1.097.219-1.498.658-.392.429-.588 1.045-.588 1.848V281h-1.176Z"/><g filter="url(#b)" opacity=".8"><circle cx="157" cy="102" r="10" fill="#2E85FA"/></g><circle cx="157" cy="102" r="10" fill="#2E85FA"/><circle cx="157" cy="102" r="5" fill="#fff"/><rect width="57" height="21" x="151" y="71" fill="#2E85FA" rx="10.5"/><path fill="#fff" d="M159.651 85v-.86l.11-.12c.08-.087.186-.197.32-.33l.45-.47.51-.53.52-.54c.28-.287.533-.553.76-.8.233-.247.42-.48.56-.7.14-.22.21-.437.21-.65 0-.347-.097-.627-.29-.84-.194-.213-.47-.32-.83-.32-.26 0-.48.06-.66.18-.18.12-.317.28-.41.48-.087.193-.13.41-.13.65h-1.1c.006-.48.106-.887.3-1.22.2-.34.473-.6.82-.78.346-.18.746-.27 1.2-.27.493 0 .903.09 1.23.27.326.18.573.427.74.74.166.313.25.677.25 1.09 0 .32-.074.62-.22.9a3.897 3.897 0 0 1-.57.79c-.234.253-.48.51-.74.77-.16.153-.317.307-.47.46l-.42.44c-.134.133-.25.253-.35.36-.1.107-.18.19-.24.25l-.09.09h3.29V85h-4.75Zm8.899 0v-1.37h-3.28v-.89l2.38-4.74h1.12l-2.3 4.65h2.15v-1.88h1.06v1.88h.88v.98h-.88V85h-1.13Zm5.331 0v-7h2.57c.707 0 1.25.16 1.63.48.387.32.58.74.58 1.26 0 .387-.097.707-.29.96a1.587 1.587 0 0 1-.72.54c.253.093.48.227.68.4.2.173.357.377.47.61.12.233.18.49.18.77 0 .373-.087.71-.26 1.01-.173.3-.43.537-.77.71-.333.173-.75.26-1.25.26h-2.82Zm1.14-.96h1.52c.42 0 .74-.093.96-.28.22-.187.33-.467.33-.84 0-.373-.117-.653-.35-.84-.233-.187-.553-.28-.96-.28h-1.5v2.24Zm0-3.19h1.34c.387 0 .673-.08.86-.24.187-.167.28-.403.28-.71 0-.3-.093-.53-.28-.69-.187-.167-.48-.25-.88-.25h-1.32v1.89Zm5.512-1.6a.722.722 0 0 1-.53-.22.721.721 0 0 1-.22-.53c0-.207.073-.38.22-.52a.722.722 0 0 1 .53-.22c.207 0 .383.073.53.22.147.14.22.313.22.52a.721.721 0 0 1-.22.53.722.722 0 0 1-.53.22Zm-.57 5.75v-4.96h1.14V85h-1.14Zm2.255 0v-7h1.13v7h-1.13Zm2.197 0v-7h1.13v7h-1.13Zm2.827-5.75a.722.722 0 0 1-.53-.22.721.721 0 0 1-.22-.53c0-.207.073-.38.22-.52a.722.722 0 0 1 .53-.22c.207 0 .383.073.53.22.147.14.22.313.22.52a.721.721 0 0 1-.22.53.722.722 0 0 1-.53.22Zm-.57 5.75v-4.96h1.14V85h-1.14Zm4.634.12a2.67 2.67 0 0 1-1.31-.32 2.392 2.392 0 0 1-.92-.9c-.22-.393-.33-.853-.33-1.38 0-.54.117-1.003.35-1.39.234-.387.547-.683.94-.89.394-.213.83-.32 1.31-.32.487 0 .924.107 1.31.32.394.207.704.503.93.89.234.387.35.85.35 1.39 0 .5-.113.947-.34 1.34-.22.393-.53.703-.93.93-.393.22-.846.33-1.36.33Zm.01-.98c.287 0 .537-.07.75-.21.22-.147.394-.343.52-.59a1.81 1.81 0 0 0 .19-.84c0-.327-.063-.61-.19-.85-.126-.24-.3-.423-.52-.55-.213-.133-.46-.2-.74-.2-.293 0-.55.07-.77.21-.213.14-.376.333-.49.58-.113.24-.17.517-.17.83 0 .34.064.633.19.88.134.24.307.423.52.55.22.127.457.19.71.19Zm3.499.86v-4.96h1.1l.02.68c.167-.26.397-.457.69-.59.293-.14.6-.21.92-.21.58 0 1.05.183 1.41.55.36.367.54.907.54 1.62V85h-1.12v-2.77c0-.42-.1-.75-.3-.99-.2-.24-.493-.36-.88-.36s-.693.13-.92.39c-.22.253-.33.6-.33 1.04V85h-1.13Z"/><defs><linearGradient id="a" x1="159" x2="159" y1="54.727" y2="299.343" gradientUnits="userSpaceOnUse"><stop stop-color="#fff"/><stop offset="1" stop-color="#fff" stop-opacity="0"/></linearGradient><filter id="b" width="60" height="60" x="127" y="72" color-interpolation-filters="sRGB" filterUnits="userSpaceOnUse"><feFlood flood-opacity="0" result="BackgroundImageFix"/><feBlend in="SourceGraphic" in2="BackgroundImageFix" result="shape"/><feGaussianBlur result="effect1_foregroundBlur_14705_2383" stdDeviation="10"/></filter></defs></svg>