<svg xmlns="http://www.w3.org/2000/svg" width="260" height="297" fill="none"><path fill="#fff" d="M1 2h24v6H1z"/><path fill="#fff" d="M7 2v24H1V2zm253-2h-24v6h24z"/><path fill="#fff" d="M254 0v24h6V0zm6 297h-24v-6h24z"/><path fill="#fff" d="M254 297v-24h6v24zM1 297h24v-6H1z"/><path fill="#fff" d="M6 297v-24H0v24z"/><path stroke="#fff" d="M6 5.5h248m.5-.5v288m-41-288v288m-41-288v288m-41-288v288M90.5 5v288M49.5 5v288M6.5 5v288M6 46.5h248M6 87.5h248m-248 41h248m-248 41h248m-248 41h248m-248 41h248m-248 41h248" opacity=".2"/><circle cx="172" cy="128" r="2" fill="#C4FC00"/><circle cx="131" cy="88" r="2" fill="#C4FC00"/><circle cx="172" cy="88" r="2" fill="#C4FC00"/><circle cx="131" cy="207" r="2" fill="#C4FC00"/><circle cx="131" cy="170" r="2" fill="#C4FC00"/><circle cx="131" cy="129" r="2" fill="#C4FC00"/><circle cx="90" cy="129" r="2" fill="#C4FC00"/><circle cx="90" cy="170" r="2" fill="#C4FC00"/><circle cx="172" cy="170" r="2" fill="#C4FC00"/></svg>