<svg xmlns="http://www.w3.org/2000/svg" width="1440" height="900" fill="none"><mask id="b" width="1604" height="1604" x="-82" y="-352" maskUnits="userSpaceOnUse" style="mask-type:alpha"><circle cx="720" cy="450" r="802" fill="url(#a)"/></mask><g mask="url(#b)"><path stroke="#fff" stroke-opacity=".09" stroke-width=".6" d="M0 112.2h1440M0 224.7h1440M0 337.2h1440M0 449.7h1440M0 562.2h1440M0 674.7h1440M0 787.2h1440M0 899.7h1440m-1329.53.3V-540M221.238 900V-540m110.77 1440V-540M442.777 900V-540M553.546 900V-540M664.315 900V-540m110.77 1440V-540M885.854 900V-540M996.623 900V-540M1107.39 900V-540m110.77 1440V-540m110.77 1440V-540M1439.7 900V-540"/><path stroke="url(#c)" d="M221.5 157.5v24"/><path stroke="url(#d)" d="M233.5 169.5h-24"/><path fill="#fff" fill-opacity=".07" stroke="#37393A" d="M554.5 112.5h109v112h-109zm442 450h111v112h-111zm-110-561h110v110h-110zm332 224h110v111h-110z" opacity=".47"/><path stroke="url(#e)" d="M1218 101v24"/><path stroke="url(#f)" d="M1230 113h-24"/></g><defs><linearGradient id="c" x1="221.5" x2="221.5" y1="181.5" y2="157.5" gradientUnits="userSpaceOnUse"><stop stop-color="#C34124" stop-opacity="0"/><stop offset=".503" stop-color="#F99A85"/><stop offset="1" stop-color="#C34124" stop-opacity="0"/></linearGradient><linearGradient id="d" x1="209.5" x2="233.5" y1="169.5" y2="169.5" gradientUnits="userSpaceOnUse"><stop stop-color="#C34124" stop-opacity="0"/><stop offset=".503" stop-color="#F99A85"/><stop offset="1" stop-color="#C34124" stop-opacity="0"/></linearGradient><linearGradient id="e" x1="1218" x2="1218" y1="125" y2="101" gradientUnits="userSpaceOnUse"><stop stop-color="#fff" stop-opacity="0"/><stop offset=".503" stop-color="#fff"/><stop offset="1" stop-color="#fff" stop-opacity="0"/></linearGradient><linearGradient id="f" x1="1206" x2="1230" y1="113" y2="113" gradientUnits="userSpaceOnUse"><stop stop-color="#fff" stop-opacity="0"/><stop offset=".503" stop-color="#fff"/><stop offset="1" stop-color="#fff" stop-opacity="0"/></linearGradient><radialGradient id="a" cx="0" cy="0" r="1" gradientTransform="matrix(0 957.5 -957.5 0 720 294.5)" gradientUnits="userSpaceOnUse"><stop stop-color="#D9D9D9"/><stop offset="1" stop-color="#D9D9D9" stop-opacity="0"/></radialGradient></defs></svg>