<svg xmlns="http://www.w3.org/2000/svg" width="59" height="59" fill="none"><g clip-path="url(#a)"><g clip-path="url(#b)"><path fill="#70DB80" d="M31.006 45.009c4.52-1.95 17.19-9.355 17.773-31.268a2.78 2.78 0 0 0-1.305-2.413 33.968 33.968 0 0 0-36.108 0 2.78 2.78 0 0 0-1.305 2.413c.584 21.913 13.252 29.318 17.773 31.268a3.962 3.962 0 0 0 3.172 0Z"/><path fill="url(#c)" stroke="url(#d)" stroke-width=".612" d="M8.873 21.842a41.032 41.032 0 0 1 40.496-.34l.598.34a3.054 3.054 0 0 1 1.533 2.513v.206c-.405 11.764-4.385 19.527-8.85 24.577-4.192 4.739-8.824 7.102-11.37 8.133l-.48.188a3.864 3.864 0 0 1-2.591.06l-.168-.06c-2.407-.914-7.38-3.266-11.85-8.321-4.327-4.892-8.196-12.33-8.802-23.485l-.05-1.091a3.037 3.037 0 0 1 1.356-2.609l.178-.111Z"/><path fill="url(#e)" fill-opacity=".9" stroke="url(#f)" stroke-linecap="round" stroke-linejoin="round" stroke-width=".49" d="M37.347 27.504a2.02 2.02 0 0 1 2.983 0c.782.83.83 2.148.147 3.039l-.147.172-11.02 11.704a2.05 2.05 0 0 1-1.492.658c-.486 0-.959-.18-1.336-.508l-.155-.15-6.297-6.688c-.781-.83-.83-2.148-.146-3.039l.146-.172a2.016 2.016 0 0 1 2.822-.154l.16.154 4.629 4.915a.245.245 0 0 0 .356 0l9.35-9.931Z"/></g></g><defs><linearGradient id="c" x1="29.42" x2="29.42" y1="9.602" y2="58.242" gradientUnits="userSpaceOnUse"><stop stop-color="#70DB80"/><stop offset=".714" stop-color="#A5EDBD"/><stop offset="1" stop-color="#A1EBBA"/></linearGradient><linearGradient id="d" x1="7.865" x2="63.935" y1="19.919" y2="60.761" gradientUnits="userSpaceOnUse"><stop stop-color="#fff"/><stop offset=".734" stop-color="#fff" stop-opacity="0"/></linearGradient><linearGradient id="e" x1="22.604" x2="57.096" y1="32.977" y2="36.815" gradientUnits="userSpaceOnUse"><stop stop-color="#fff"/><stop offset="1" stop-color="#fff" stop-opacity="0"/></linearGradient><linearGradient id="f" x1="19.787" x2="34.037" y1="28.986" y2="33.459" gradientUnits="userSpaceOnUse"><stop stop-color="#fff"/><stop offset="1" stop-color="#fff" stop-opacity="0"/></linearGradient><clipPath id="a"><path fill="#fff" d="M0 0h58.84v58.24H0z"/></clipPath><clipPath id="b"><path fill="#fff" d="M7 0h44.84v58.24H7z"/></clipPath></defs></svg>