<svg xmlns="http://www.w3.org/2000/svg" width="21" height="28" fill="none"><path fill="#DE7818" d="M4.32 16.364.316 24.9c-.126.258.007.42.427.34l3.258-.708a.244.244 0 0 1 .317.17l1.467 3.007c.14.324.303.39.428.133l4.26-8.935-6.155-2.543Zm12.339 0 4.003 8.536c.132.258-.008.42-.428.34l-3.258-.708a.247.247 0 0 0-.317.17l-1.467 3.007c-.14.324-.295.39-.427.133l-4.261-8.935 6.155-2.543Z"/><path fill="#B35454" d="M9.288 21.392c0 .007-.015 0-.03 0a10.44 10.44 0 0 1-5.97-2.742c-.008-.008-.03-.015-.023-.022l.184-.391c.008-.015.023.022.03.03 1.577 1.466 3.767 2.388 6.008 2.66.007 0 .022 0 .022.008l-.221.457Z"/><path fill="#F0CD0A" d="M10.49 20.979c5.793 0 10.489-4.696 10.489-10.49C20.979 4.696 16.283 0 10.489 0 4.696 0 0 4.696 0 10.49c0 5.793 4.696 10.489 10.49 10.489Z"/><path fill="#D2B309" d="M10.49 19.535a9.045 9.045 0 1 0 0-18.09 9.045 9.045 0 0 0 0 18.09Z"/><path fill="#E3C101" d="M10.74 19.5a8.75 8.75 0 1 0 0-17.5 8.75 8.75 0 0 0 0 17.5Z"/><path fill="#FFF2B5" fill-rule="evenodd" d="M10.44 14.755h2.15V6.3h-2.15L8.29 7.765v1.851l2.038-1.377h.112v6.516Z" clip-rule="evenodd"/><path fill="#fff" fill-opacity=".2" d="M12.959 3.089a7.604 7.604 0 0 1 .354 14.698c2.034-1.555 3.383-4.209 3.383-7.223 0-3.185-1.504-5.964-3.737-7.475Z"/><path fill="#B35454" d="M11.69 21.392c.008.007.023 0 .03 0 2.293-.288 4.401-1.21 5.986-2.728.007-.007.03-.015.022-.022l-.184-.39c-.008-.015-.022.022-.03.029-1.577 1.467-3.774 2.373-6.022 2.646-.008 0-.022 0-.022.008l.22.457Z"/></svg>