<svg xmlns="http://www.w3.org/2000/svg" width="176" height="33" fill="none"><path fill="#AAA" d="m17.683 8.863 7.682 7.7-7.682 7.701-7.683-7.7 7.683-7.7Zm16.634 0 7.683 7.7-7.683 7.701-7.682-7.7 7.682-7.7ZM26 17.2l7.683 7.7L26 32.6l-7.683-7.7L26 17.2ZM26 .6l7.683 7.701-7.683 7.7-7.683-7.7L26 .601Zm31.823 25.24c-1.568 0-2.912-.28-4.032-.84-1.104-.575-2.056-1.407-2.856-2.495l2.256-2.544c.784 1.088 1.56 1.832 2.328 2.232a5.653 5.653 0 0 0 2.52.576c.496 0 .936-.072 1.32-.216.4-.144.712-.344.936-.6.24-.256.36-.552.36-.888 0-.256-.056-.488-.168-.696a1.655 1.655 0 0 0-.48-.576 3.08 3.08 0 0 0-.744-.456 5.205 5.205 0 0 0-.96-.36 15.56 15.56 0 0 0-1.152-.264c-.896-.192-1.68-.44-2.352-.744-.672-.304-1.232-.672-1.68-1.104a4.234 4.234 0 0 1-1.008-1.488 5.62 5.62 0 0 1-.312-1.92c0-.992.28-1.856.84-2.592.56-.752 1.304-1.336 2.232-1.752.928-.432 1.952-.648 3.072-.648 1.52 0 2.768.256 3.744.768a6.066 6.066 0 0 1 2.376 2.16l-2.304 2.256c-.496-.688-1.064-1.208-1.704-1.56a4.216 4.216 0 0 0-2.064-.528c-.512 0-.968.072-1.368.216-.384.128-.68.328-.888.6-.208.256-.312.56-.312.912 0 .288.072.544.216.768.144.224.344.424.6.6.272.16.6.304.984.432s.808.232 1.272.312c.88.176 1.672.416 2.376.72.704.288 1.304.64 1.8 1.056.512.416.904.896 1.176 1.44.272.544.408 1.152.408 1.824 0 1.136-.272 2.104-.816 2.904-.544.8-1.296 1.416-2.256 1.848-.96.432-2.08.648-3.36.648Zm9.501-.24V12.906h3.408V25.6h-3.408Zm1.68-15.311c-.656 0-1.168-.16-1.536-.48-.368-.32-.552-.776-.552-1.368 0-.544.184-.984.552-1.32.384-.352.904-.528 1.56-.528.64 0 1.144.168 1.512.504.368.32.552.768.552 1.344 0 .56-.184 1.008-.552 1.344-.368.336-.88.504-1.536.504ZM75.619 25.6V9.689h3.408V25.6H75.62Zm-2.376-9.648v-3.048h8.4v3.048h-8.4Zm16.505 9.888c-1.377 0-2.585-.28-3.624-.84a6.159 6.159 0 0 1-2.4-2.304c-.56-.976-.84-2.088-.84-3.336 0-.992.16-1.896.48-2.712a6.225 6.225 0 0 1 1.343-2.136 5.948 5.948 0 0 1 2.04-1.368 6.688 6.688 0 0 1 2.617-.504c.864 0 1.655.16 2.376.48a5.265 5.265 0 0 1 1.895 1.32c.544.56.96 1.224 1.248 1.992.288.768.425 1.608.409 2.52l-.025 1.056h-10.2l-.551-2.112h7.944l-.408.432v-.504a2.148 2.148 0 0 0-.433-1.176c-.24-.336-.552-.6-.936-.792a2.627 2.627 0 0 0-1.272-.312c-.72 0-1.328.144-1.823.432-.48.272-.848.672-1.104 1.2-.24.512-.36 1.152-.36 1.92 0 .752.16 1.416.48 1.992.32.56.775.992 1.368 1.296.608.304 1.32.456 2.136.456a4.3 4.3 0 0 0 1.535-.264c.465-.176.969-.48 1.513-.912l1.607 2.28c-.448.4-.952.744-1.512 1.032a7.8 7.8 0 0 1-1.728.648 7.49 7.49 0 0 1-1.775.216Zm8.541-.24V8.8h3.6v16.8h-3.6Zm1.656-6.672v-3.12h8.712v3.12h-8.712Zm0-6.888V8.8h9.72v3.24h-9.72Zm18.112 13.8c-1.296 0-2.448-.28-3.456-.84a6.509 6.509 0 0 1-2.4-2.352c-.576-.992-.864-2.12-.864-3.384 0-1.28.288-2.416.864-3.408a6.273 6.273 0 0 1 2.4-2.352c1.008-.576 2.16-.864 3.456-.864 1.296 0 2.448.288 3.456.864a6.104 6.104 0 0 1 2.376 2.352c.592.992.888 2.128.888 3.408 0 1.264-.296 2.392-.888 3.384A6.326 6.326 0 0 1 121.513 25c-1.008.56-2.16.84-3.456.84Zm0-2.952c.624 0 1.184-.16 1.68-.48.496-.32.88-.752 1.152-1.296.288-.544.424-1.16.408-1.848.016-.72-.12-1.352-.408-1.896a3.032 3.032 0 0 0-1.152-1.296 3.032 3.032 0 0 0-1.68-.48 3.15 3.15 0 0 0-1.704.48c-.496.32-.888.752-1.176 1.296-.272.544-.4 1.176-.384 1.896-.016.688.112 1.304.384 1.848.288.544.68.976 1.176 1.296.512.32 1.08.48 1.704.48Zm9.284 2.712V12.905h3.288l.12 4.08-.576-.864c.208-.64.52-1.224.936-1.752a4.894 4.894 0 0 1 1.512-1.248 3.836 3.836 0 0 1 1.848-.48c.288 0 .552.024.792.072.256.032.472.088.648.168l-.912 3.72a3.62 3.62 0 0 0-.696-.216 2.962 2.962 0 0 0-.84-.12c-.368 0-.72.072-1.056.216-.32.128-.608.32-.864.576-.24.24-.432.528-.576.864a3.148 3.148 0 0 0-.192 1.128V25.6h-3.432Zm15.956 5.52c-.992 0-1.984-.144-2.976-.432-.976-.288-1.768-.672-2.376-1.152l1.2-2.448a6.582 6.582 0 0 0 1.752.84c.672.208 1.36.312 2.064.312.848 0 1.536-.128 2.064-.384.544-.256.944-.64 1.2-1.152.272-.496.408-1.128.408-1.896V22.6l.576.144c-.096.496-.368.968-.816 1.416-.432.432-.968.784-1.608 1.056a5.102 5.102 0 0 1-2.016.408c-1.168 0-2.216-.272-3.144-.816a6.04 6.04 0 0 1-2.16-2.28c-.528-.96-.792-2.064-.792-3.312 0-1.28.264-2.416.792-3.408s1.24-1.768 2.136-2.328c.912-.56 1.936-.84 3.072-.84.48 0 .936.056 1.368.168.448.112.856.272 1.224.48.384.192.728.408 1.032.648.304.24.552.504.744.792.192.288.312.576.36.864l-.72.216.096-2.904h3.288V24.64c0 1.024-.16 1.936-.48 2.736-.304.816-.752 1.496-1.344 2.04-.576.56-1.28.984-2.112 1.272-.832.288-1.776.432-2.832.432Zm.096-8.256c.672 0 1.256-.152 1.752-.456a3.013 3.013 0 0 0 1.176-1.272c.288-.544.432-1.176.432-1.896 0-.736-.144-1.376-.432-1.92a3.013 3.013 0 0 0-1.176-1.272c-.496-.32-1.08-.48-1.752-.48-.656 0-1.232.16-1.728.48a3.228 3.228 0 0 0-1.176 1.272c-.272.544-.408 1.176-.408 1.896s.136 1.36.408 1.92c.288.544.68.968 1.176 1.272.496.304 1.072.456 1.728.456Zm16.058 2.976c-1.376 0-2.584-.28-3.624-.84a6.159 6.159 0 0 1-2.4-2.304c-.56-.976-.84-2.088-.84-3.336 0-.992.16-1.896.48-2.712a6.225 6.225 0 0 1 1.344-2.136 5.948 5.948 0 0 1 2.04-1.368 6.688 6.688 0 0 1 2.616-.504c.864 0 1.656.16 2.376.48a5.265 5.265 0 0 1 1.896 1.32c.544.56.96 1.224 1.248 1.992.288.768.424 1.608.408 2.52l-.024 1.056h-10.2l-.552-2.112h7.944l-.408.432v-.504a2.148 2.148 0 0 0-.432-1.176c-.24-.336-.552-.6-.936-.792a2.627 2.627 0 0 0-1.272-.312c-.72 0-1.328.144-1.824.432-.48.272-.848.672-1.104 1.2-.24.512-.36 1.152-.36 1.92 0 .752.16 1.416.48 1.992.32.56.776.992 1.368 1.296.608.304 1.32.456 2.136.456a4.3 4.3 0 0 0 1.536-.264c.464-.176.968-.48 1.512-.912l1.608 2.28c-.448.4-.952.744-1.512 1.032a7.8 7.8 0 0 1-1.728.648 7.49 7.49 0 0 1-1.776.216Z"/></svg>