<svg xmlns="http://www.w3.org/2000/svg" width="176" height="32" fill="none"><path fill="#fff" d="M50.785 7.52a9.298 9.298 0 0 0-3.903-.853 9.333 9.333 0 0 0 0 18.666 9.299 9.299 0 0 0 3.903-.853C47.957 28.997 42.937 32 37.215 32c-8.837 0-16-7.163-16-16s7.163-16 16-16c5.722 0 10.742 3.003 13.57 7.52Z"/><path fill="#fff" d="M50.785 16a3.904 3.904 0 1 1-7.807 0 3.904 3.904 0 0 1 7.807 0Zm17.298 8.312a7.747 7.747 0 0 1-3.204-.672 8.439 8.439 0 0 1-2.64-1.884 9.034 9.034 0 0 1-1.776-2.772 8.996 8.996 0 0 1-.636-3.384c0-1.208.212-2.336.636-3.384a8.848 8.848 0 0 1 1.776-2.772c.76-.8 1.64-1.424 2.64-1.872 1-.456 2.068-.684 3.204-.684 1.36 0 2.612.316 3.756.948a8.41 8.41 0 0 1 2.844 2.508l-2.952 1.596a5.006 5.006 0 0 0-1.62-1.26 4.427 4.427 0 0 0-2.028-.48c-.68 0-1.32.14-1.92.42-.6.28-1.128.668-1.584 1.164a5.61 5.61 0 0 0-1.056 1.716 5.664 5.664 0 0 0-.384 2.1c0 .744.128 1.444.384 2.1a5.61 5.61 0 0 0 1.056 1.716c.456.488.984.876 1.584 1.164.6.28 1.24.42 1.92.42a4.38 4.38 0 0 0 2.028-.48 5.153 5.153 0 0 0 1.62-1.272l2.952 1.608a8.584 8.584 0 0 1-2.844 2.508c-1.144.632-2.396.948-3.756.948Zm13.465 0a5.607 5.607 0 0 1-3.024-.852 6.388 6.388 0 0 1-2.172-2.28c-.536-.96-.804-2.02-.804-3.18 0-.88.156-1.7.468-2.46.312-.768.74-1.44 1.284-2.016a6.022 6.022 0 0 1 1.92-1.368 5.602 5.602 0 0 1 2.328-.492c1.104 0 2.108.284 3.012.852a6.227 6.227 0 0 1 2.172 2.292c.544.96.816 2.024.816 3.192 0 .872-.156 1.688-.468 2.448a6.5 6.5 0 0 1-1.296 2.016 5.974 5.974 0 0 1-1.908 1.356 5.549 5.549 0 0 1-2.328.492Zm0-3.312c.512 0 .972-.136 1.38-.408a2.92 2.92 0 0 0 .96-1.104c.232-.456.348-.952.348-1.488 0-.552-.124-1.056-.372-1.512a2.898 2.898 0 0 0-.972-1.104 2.373 2.373 0 0 0-1.344-.408c-.504 0-.96.14-1.368.42a3.02 3.02 0 0 0-.972 1.104 3.26 3.26 0 0 0-.348 1.5c0 .568.12 1.08.36 1.536.248.448.576.804.984 1.068.408.264.856.396 1.344.396ZM98.283 6h3.312v18h-3.312v-1.272a4.417 4.417 0 0 1-1.368 1.14c-.544.296-1.164.444-1.86.444a6.111 6.111 0 0 1-2.448-.492 6.53 6.53 0 0 1-2.016-1.356 6.53 6.53 0 0 1-1.356-2.016A6.111 6.111 0 0 1 88.743 18c0-.872.164-1.688.492-2.448a6.427 6.427 0 0 1 3.372-3.372 6.111 6.111 0 0 1 2.448-.492c.696 0 1.316.148 1.86.444.544.288 1 .668 1.368 1.14V6Zm-3.18 15.132c.544 0 1.036-.14 1.476-.42.44-.28.788-.656 1.044-1.128.256-.48.384-1.008.384-1.584 0-.584-.128-1.112-.384-1.584a3.016 3.016 0 0 0-1.044-1.128c-.44-.28-.932-.42-1.476-.42-.552 0-1.052.14-1.5.42-.448.28-.804.66-1.068 1.14A3.165 3.165 0 0 0 92.14 18c0 .576.132 1.104.396 1.584.272.472.632.848 1.08 1.128.448.28.944.42 1.488.42Zm14.43 3.18a5.607 5.607 0 0 1-3.024-.852 6.359 6.359 0 0 1-2.172-2.292c-.536-.96-.804-2.02-.804-3.18 0-.872.156-1.688.468-2.448.312-.768.74-1.44 1.284-2.016a6.022 6.022 0 0 1 1.92-1.368 5.602 5.602 0 0 1 2.328-.492c.952 0 1.82.204 2.604.612a5.94 5.94 0 0 1 2.004 1.668 6.48 6.48 0 0 1 1.176 2.388c.24.888.28 1.812.12 2.772h-8.328c.104.352.264.672.48.96.224.28.496.504.816.672.328.168.704.256 1.128.264.416.008.8-.088 1.152-.288.352-.2.652-.468.9-.804l3.384.78a6.414 6.414 0 0 1-2.184 2.616 5.57 5.57 0 0 1-3.252 1.008Zm-2.544-7.656h5.1a2.96 2.96 0 0 0-.528-1.08 2.725 2.725 0 0 0-.9-.756 2.354 2.354 0 0 0-1.128-.276 2.4 2.4 0 0 0-1.128.276c-.344.184-.64.436-.888.756-.24.312-.416.672-.528 1.08ZM117.143 24V6h3.312v18h-3.312Zm6.188-12h3.312v12h-3.312V12Zm1.68-1.38c-.48 0-.884-.16-1.212-.48a1.593 1.593 0 0 1-.492-1.188c0-.472.164-.868.492-1.188.328-.32.728-.48 1.2-.48s.868.16 1.188.48c.328.32.492.716.492 1.188s-.16.868-.48 1.188c-.312.32-.708.48-1.188.48Zm15.538 5.748V24h-3.312v-6.72c0-.424-.104-.804-.312-1.14a2.218 2.218 0 0 0-.816-.816c-.336-.2-.712-.3-1.128-.3a2.227 2.227 0 0 0-1.956 1.116c-.2.336-.3.716-.3 1.14V24h-3.312l-.012-12h3.312l.012.888c.4-.384.868-.684 1.404-.9a4.607 4.607 0 0 1 1.716-.324c.872 0 1.66.212 2.364.636a4.83 4.83 0 0 1 1.704 1.704c.424.704.636 1.492.636 2.364ZM154.107 24h-3.816l-2.544-4.38-1.464 1.74V24h-3.312V6h3.312v10.212L149.811 12h4.32l-4.116 4.932L154.107 24Z"/></svg>