<svg xmlns="http://www.w3.org/2000/svg" width="176" height="32" fill="none"><path fill="#fff" fill-rule="evenodd" d="M34 0c-5.523 0-10 4.477-10 10v12c0 5.523 4.477 10 10 10h12c5.523 0 10-4.477 10-10V10c0-5.523-4.477-10-10-10H34Zm-.913 24.318h3.417v-13.59l4.94 13.59h5.47V7.682h-3.407v13.754L38.523 7.682h-5.437v16.636Z" clip-rule="evenodd"/><path fill="#fff" d="M69.424 23h-3.636V5.3h5.784L77.5 21.656l-.624.156V5.3H80.5V23h-5.82L68.752 6.692l.672-.156V23Zm15.429-5.256v-2.46H93.3l-.36.624v-.36c0-.456-.108-.892-.324-1.308-.216-.424-.552-.768-1.008-1.032-.448-.272-1.024-.408-1.728-.408s-1.312.152-1.824.456a2.932 2.932 0 0 0-1.164 1.284c-.264.56-.396 1.236-.396 2.028 0 .816.128 1.516.384 2.1A2.96 2.96 0 0 0 88.045 20c.52.312 1.164.468 1.932.468.496 0 .924-.044 1.284-.132.36-.096.652-.216.876-.36.232-.144.408-.304.528-.48.12-.176.192-.348.216-.516h3.672c-.048.536-.232 1.064-.552 1.584-.32.512-.764.976-1.332 1.392-.568.408-1.26.732-2.076.972-.808.24-1.732.36-2.772.36-1.408 0-2.636-.28-3.684-.84-1.048-.568-1.86-1.348-2.436-2.34-.576-1-.864-2.152-.864-3.456 0-1.32.292-2.476.876-3.468a6.105 6.105 0 0 1 2.46-2.328c1.056-.56 2.276-.84 3.66-.84 1.416 0 2.64.284 3.672.852a5.86 5.86 0 0 1 2.388 2.364c.56 1.008.84 2.184.84 3.528 0 .2-.004.392-.012.576-.008.184-.02.32-.036.408H84.853Zm20.375 5.52c-.488 0-.992-.044-1.512-.132a4.33 4.33 0 0 1-1.44-.492 2.874 2.874 0 0 1-1.068-1.116c-.272-.488-.408-1.132-.408-1.932v-6.456h-2.94v-2.88h.828c.48 0 .86-.02 1.14-.06.288-.04.5-.14.636-.3.144-.168.236-.428.276-.78.04-.352.06-.836.06-1.452V6.056h3.732v4.2h3.708v2.88h-3.708v5.4c0 .552.064 1 .192 1.344.136.344.468.516.996.516.264 0 .512-.024.744-.072.24-.048.42-.096.54-.144v2.796a3.465 3.465 0 0 1-.708.192c-.304.064-.66.096-1.068.096Zm10.29.024a5.895 5.895 0 0 1-2.94-.756c-.896-.512-1.616-1.268-2.16-2.268-.544-1-.816-2.232-.816-3.696 0-1.4.276-2.588.828-3.564.56-.976 1.288-1.716 2.184-2.22a5.798 5.798 0 0 1 2.904-.768c1.008 0 1.928.256 2.76.768a5.712 5.712 0 0 1 2.016 2.1c.504.88.756 1.896.756 3.048v.228l-1.608.024v-.156c0-.6-.144-1.116-.432-1.548a2.906 2.906 0 0 0-1.116-.996 3.026 3.026 0 0 0-1.428-.36c-.824 0-1.536.276-2.136.828-.6.544-.9 1.416-.9 2.616 0 1.2.3 2.084.9 2.652.608.56 1.32.84 2.136.84.512 0 .996-.12 1.452-.36a2.94 2.94 0 0 0 1.104-1.044c.28-.448.42-.976.42-1.584l1.608.084c0 1.144-.248 2.18-.744 3.108a5.899 5.899 0 0 1-1.992 2.208c-.832.544-1.764.816-2.796.816Zm3.924-.288V4.244h3.732V23h-3.732Zm12.953.276c-1.376 0-2.588-.284-3.636-.852a6.299 6.299 0 0 1-2.46-2.34c-.584-1-.876-2.152-.876-3.456 0-1.296.292-2.44.876-3.432a6.105 6.105 0 0 1 2.46-2.328c1.048-.56 2.26-.84 3.636-.84 1.376 0 2.588.28 3.636.84a6.024 6.024 0 0 1 2.448 2.328c.592.992.888 2.136.888 3.432 0 1.304-.296 2.456-.888 3.456a6.213 6.213 0 0 1-2.448 2.34c-1.048.568-2.26.852-3.636.852Zm0-2.952c.648 0 1.212-.152 1.692-.456.48-.304.852-.732 1.116-1.284.264-.56.396-1.212.396-1.956s-.132-1.388-.396-1.932c-.264-.552-.636-.976-1.116-1.272-.48-.296-1.044-.444-1.692-.444-.64 0-1.204.148-1.692.444-.48.296-.852.72-1.116 1.272-.264.544-.396 1.188-.396 1.932s.132 1.396.396 1.956c.264.552.636.98 1.116 1.284.488.304 1.052.456 1.692.456Zm15.466 2.94c-.488 0-.992-.044-1.512-.132a4.33 4.33 0 0 1-1.44-.492 2.874 2.874 0 0 1-1.068-1.116c-.272-.488-.408-1.132-.408-1.932v-6.456h-2.94v-2.88h.828c.48 0 .86-.02 1.14-.06.288-.04.5-.14.636-.3.144-.168.236-.428.276-.78.04-.352.06-.836.06-1.452V6.056h3.732v4.2h3.708v2.88h-3.708v5.4c0 .552.064 1 .192 1.344.136.344.468.516.996.516.264 0 .512-.024.744-.072.24-.048.42-.096.54-.144v2.796a3.465 3.465 0 0 1-.708.192c-.304.064-.66.096-1.068.096Z"/></svg>