<svg xmlns="http://www.w3.org/2000/svg" width="176" height="32" fill="none"><path fill="#fff" fill-rule="evenodd" d="M33 32c8.837 0 16-7.163 16-16S41.837 0 33 0 17 7.163 17 16s7.163 16 16 16Zm3.111-3.556a9.333 9.333 0 1 0 0-18.667 9.333 9.333 0 0 0 0 18.667Z" clip-rule="evenodd"/><path fill="#fff" d="M64.887 7.248c1.76 0 3.304.344 4.632 1.032 1.344.688 2.376 1.672 3.096 2.952.736 1.264 1.104 2.736 1.104 4.416 0 1.68-.368 3.152-1.104 4.416-.72 1.248-1.752 2.216-3.096 2.904-1.328.688-2.872 1.032-4.632 1.032h-5.856V7.248h5.856Zm-.12 13.896c1.76 0 3.12-.48 4.08-1.44s1.44-2.312 1.44-4.056c0-1.744-.48-3.104-1.44-4.08-.96-.992-2.32-1.488-4.08-1.488h-2.376v11.064h2.376ZM77.938 9.12c-.592 0-1.088-.184-1.488-.552a1.925 1.925 0 0 1-.576-1.416c0-.56.192-1.024.576-1.392.4-.384.896-.576 1.488-.576s1.08.192 1.464.576c.4.368.6.832.6 1.392 0 .56-.2 1.032-.6 1.416-.384.368-.872.552-1.464.552Zm1.656 1.584V24h-3.36V10.704h3.36Zm8.528-.216c.992 0 1.864.2 2.616.6.752.384 1.344.888 1.776 1.512v-1.896h3.384v13.392c0 1.232-.248 2.328-.744 3.288-.496.976-1.24 1.744-2.232 2.304-.992.576-2.192.864-3.6.864-1.888 0-3.44-.44-4.656-1.32-1.2-.88-1.88-2.08-2.04-3.6h3.336c.176.608.552 1.088 1.128 1.44.592.368 1.304.552 2.136.552.976 0 1.768-.296 2.376-.888.608-.576.912-1.456.912-2.64v-2.064c-.432.624-1.032 1.144-1.8 1.56-.752.416-1.616.624-2.592.624a5.71 5.71 0 0 1-3.072-.864c-.928-.576-1.664-1.384-2.208-2.424-.528-1.056-.792-2.264-.792-3.624 0-1.344.264-2.536.792-3.576.544-1.04 1.272-1.84 2.184-2.4.928-.56 1.96-.84 3.096-.84Zm4.392 6.864c0-.816-.16-1.512-.48-2.088-.32-.592-.752-1.04-1.296-1.344a3.397 3.397 0 0 0-1.752-.48c-.624 0-1.2.152-1.728.456-.528.304-.96.752-1.296 1.344-.32.576-.48 1.264-.48 2.064s.16 1.504.48 2.112c.336.592.768 1.048 1.296 1.368.544.32 1.12.48 1.728.48.624 0 1.208-.152 1.752-.456.544-.32.976-.768 1.296-1.344.32-.592.48-1.296.48-2.112Zm8.369-8.232c-.592 0-1.088-.184-1.488-.552a1.925 1.925 0 0 1-.576-1.416c0-.56.192-1.024.576-1.392.4-.384.896-.576 1.488-.576s1.08.192 1.464.576c.4.368.6.832.6 1.392 0 .56-.2 1.032-.6 1.416-.384.368-.872.552-1.464.552Zm1.656 1.584V24h-3.36V10.704h3.36Zm7.232 2.76v6.432c0 .448.104.776.312.984.224.192.592.288 1.104.288h1.56V24h-2.112c-2.832 0-4.248-1.376-4.248-4.128v-6.408h-1.584v-2.76h1.584V7.416h3.384v3.288h2.976v2.76h-2.976Zm17.753 3.6c0 .48-.032.912-.096 1.296h-9.72c.08.96.416 1.712 1.008 2.256.592.544 1.32.816 2.184.816 1.248 0 2.136-.536 2.664-1.608h3.624c-.384 1.28-1.12 2.336-2.208 3.168-1.088.816-2.424 1.224-4.008 1.224-1.28 0-2.432-.28-3.456-.84a6.182 6.182 0 0 1-2.376-2.424c-.56-1.04-.84-2.24-.84-3.6 0-1.376.28-2.584.84-3.624a5.861 5.861 0 0 1 2.352-2.4c1.008-.56 2.168-.84 3.48-.84 1.264 0 2.392.272 3.384.816a5.63 5.63 0 0 1 2.328 2.328c.56.992.84 2.136.84 3.432Zm-3.48-.96c-.016-.864-.328-1.552-.936-2.064-.608-.528-1.352-.792-2.232-.792-.832 0-1.536.256-2.112.768-.56.496-.904 1.192-1.032 2.088h6.312Zm5.068 1.248c0-1.376.28-2.576.84-3.6.56-1.04 1.336-1.84 2.328-2.4.992-.576 2.128-.864 3.408-.864 1.648 0 3.008.416 4.08 1.248 1.088.816 1.816 1.968 2.184 3.456h-3.624c-.192-.576-.52-1.024-.984-1.344-.448-.336-1.008-.504-1.68-.504-.96 0-1.72.352-2.28 1.056-.56.688-.84 1.672-.84 2.952 0 1.264.28 2.248.84 2.952.56.688 1.32 1.032 2.28 1.032 1.36 0 2.248-.608 2.664-1.824h3.624c-.368 1.44-1.096 2.584-2.184 3.432-1.088.848-2.448 1.272-4.08 1.272-1.28 0-2.416-.28-3.408-.84a6.108 6.108 0 0 1-2.328-2.4c-.56-1.04-.84-2.248-.84-3.624Zm22.79-6.84c1.008 0 1.904.224 2.688.672.784.432 1.392 1.08 1.824 1.944.448.848.672 1.872.672 3.072V24h-3.36v-7.344c0-1.056-.264-1.864-.792-2.424-.528-.576-1.248-.864-2.16-.864-.928 0-1.664.288-2.208.864-.528.56-.792 1.368-.792 2.424V24h-3.36V6.24h3.36v6.12c.432-.576 1.008-1.024 1.728-1.344.72-.336 1.52-.504 2.4-.504Z"/></svg>