<svg xmlns="http://www.w3.org/2000/svg" width="176" height="32" fill="none"><path fill="#fff" d="M25.48.273a2.04 2.04 0 0 1 2.04 0l12.09 6.98a2.04 2.04 0 0 1 1.02 1.767v7.792l-12.806-7.38a1.275 1.275 0 0 0-1.272 2.21l14.077 8.112v3.226a2.04 2.04 0 0 1-1.02 1.767l-12.09 6.98a2.04 2.04 0 0 1-2.039 0l-12.09-6.98a2.04 2.04 0 0 1-1.02-1.767v-7.768l12.72 7.354a1.275 1.275 0 1 0 1.276-2.207L12.37 12.267V9.02a2.04 2.04 0 0 1 1.02-1.766L25.48.274Zm31.19 23.991c-.671 0-1.36-.056-2.063-.168a13.336 13.336 0 0 1-1.992-.432 8.049 8.049 0 0 1-1.68-.72c-.352-.192-.6-.44-.744-.744-.144-.32-.2-.64-.168-.96.048-.32.168-.6.36-.84a1.32 1.32 0 0 1 .768-.48c.32-.08.672-.024 1.056.168.656.368 1.368.64 2.136.816.784.176 1.56.264 2.328.264 1.168 0 2-.176 2.496-.528.496-.368.744-.824.744-1.368 0-.464-.176-.832-.528-1.104-.352-.272-.968-.504-1.848-.696l-2.712-.576c-1.536-.32-2.68-.864-3.432-1.632-.736-.784-1.104-1.808-1.104-3.072 0-.8.168-1.528.504-2.184a5.146 5.146 0 0 1 1.416-1.704c.608-.48 1.328-.848 2.16-1.104.848-.256 1.776-.384 2.784-.384.896 0 1.776.112 2.64.336.864.208 1.624.52 2.28.936.32.192.536.44.648.744.128.288.168.584.12.888a1.32 1.32 0 0 1-.36.768c-.192.224-.44.368-.744.432s-.672-.008-1.104-.216a6.78 6.78 0 0 0-1.68-.6 8.607 8.607 0 0 0-1.824-.192c-.672 0-1.248.088-1.728.264-.464.176-.824.424-1.08.744-.24.32-.36.688-.36 1.104 0 .464.168.84.504 1.128.336.288.92.52 1.752.696l2.712.576c1.568.336 2.736.88 3.504 1.632.768.736 1.152 1.712 1.152 2.928 0 .8-.16 1.528-.48 2.184a4.736 4.736 0 0 1-1.392 1.656c-.608.464-1.336.824-2.184 1.08-.848.24-1.8.36-2.856.36Zm10.84 4.272c-.592 0-1.048-.16-1.368-.48-.304-.304-.456-.76-.456-1.368v-12.84c0-.592.152-1.04.456-1.344.32-.32.76-.48 1.32-.48.592 0 1.04.16 1.344.48.304.304.456.752.456 1.344v1.632l-.264-.936c.24-.768.72-1.384 1.44-1.848.736-.48 1.576-.72 2.52-.72 1.024 0 1.92.248 2.688.744.784.496 1.392 1.2 1.824 2.112.432.912.648 2 .648 3.264 0 1.264-.216 2.36-.648 3.288-.432.928-1.032 1.64-1.8 2.136-.768.496-1.672.744-2.712.744-.928 0-1.752-.224-2.472-.672-.72-.464-1.208-1.064-1.464-1.8h.288v4.896c0 .608-.16 1.064-.48 1.368-.304.32-.744.48-1.32.48Zm4.368-6.984c.512 0 .96-.128 1.344-.384.4-.256.704-.632.912-1.128.224-.512.336-1.16.336-1.944 0-1.168-.24-2.024-.72-2.568-.48-.56-1.104-.84-1.872-.84-.512 0-.968.12-1.368.36-.384.24-.688.616-.912 1.128-.224.496-.336 1.136-.336 1.92 0 1.168.24 2.04.72 2.616.48.56 1.112.84 1.896.84Zm12.44 2.712c-.864 0-1.64-.168-2.328-.504-.688-.336-1.224-.792-1.608-1.368a3.426 3.426 0 0 1-.576-1.944c0-.864.224-1.544.672-2.04.448-.512 1.176-.872 2.184-1.08 1.008-.224 2.344-.336 4.008-.336h1.272v1.872h-1.248c-.816 0-1.48.048-1.992.144-.496.08-.856.224-1.08.432-.208.208-.312.496-.312.864 0 .448.152.816.456 1.104.32.288.776.432 1.368.432a2.36 2.36 0 0 0 1.224-.312 2.42 2.42 0 0 0 .864-.888c.208-.384.312-.816.312-1.296v-2.76c0-.704-.16-1.2-.48-1.488-.32-.304-.864-.456-1.632-.456-.432 0-.904.056-1.416.168a9.479 9.479 0 0 0-1.656.504c-.352.16-.664.2-.936.12a1.184 1.184 0 0 1-.624-.48 1.468 1.468 0 0 1-.216-.768c0-.288.08-.56.24-.816.16-.272.424-.472.792-.6a10.306 10.306 0 0 1 2.112-.624 11.311 11.311 0 0 1 1.848-.168c1.232 0 2.24.184 3.024.552.8.352 1.4.904 1.8 1.656.4.736.6 1.688.6 2.856v5.328c0 .592-.144 1.048-.432 1.368-.288.32-.704.48-1.248.48s-.968-.16-1.272-.48c-.288-.32-.432-.776-.432-1.368v-.888l.168.144a3.082 3.082 0 0 1-.624 1.416 3.194 3.194 0 0 1-1.176.912c-.48.208-1.032.312-1.656.312Zm11.248-.048c-.608 0-1.072-.16-1.392-.48-.32-.32-.48-.776-.48-1.368v-8.52c0-.592.152-1.04.456-1.344.32-.32.76-.48 1.32-.48.576 0 1.016.16 1.32.48.304.304.456.752.456 1.344v1.248h-.24c.192-.96.616-1.704 1.272-2.232.656-.528 1.504-.824 2.544-.888.4-.032.704.072.912.312.224.224.344.6.36 1.128.032.496-.072.888-.312 1.176-.224.288-.608.464-1.152.528l-.552.048c-.912.08-1.592.344-2.04.792-.432.448-.648 1.096-.648 1.944v4.464c0 .592-.16 1.048-.48 1.368-.304.32-.752.48-1.344.48Zm9.842 0c-.592 0-1.048-.16-1.368-.48-.304-.32-.456-.776-.456-1.368V8.712c0-.608.152-1.064.456-1.368.32-.32.776-.48 1.368-.48.576 0 1.016.16 1.32.48.32.304.48.76.48 1.368v8.376h.048l3.48-3.864c.352-.4.672-.696.96-.888.304-.208.704-.312 1.2-.312s.872.128 1.128.384c.272.256.408.568.408.936.016.352-.136.712-.456 1.08l-3.672 4.104V17.16l4.08 4.704c.304.368.432.736.384 1.104a1.29 1.29 0 0 1-.48.912c-.288.224-.656.336-1.104.336-.544 0-.984-.104-1.32-.312-.32-.208-.648-.528-.984-.96l-3.624-4.032h-.048v3.456c0 1.232-.6 1.848-1.8 1.848Zm15.962 0c-.48 0-.888-.112-1.224-.336-.336-.24-.608-.616-.816-1.128l-3.384-8.376c-.176-.448-.232-.84-.168-1.176.064-.352.232-.632.504-.84.288-.224.68-.336 1.176-.336.416 0 .76.104 1.032.312.272.192.504.568.696 1.128l2.64 7.032h-.552l2.736-7.344c.128-.384.312-.664.552-.84.256-.192.584-.288.984-.288s.72.096.96.288c.256.192.456.472.6.84l2.688 7.344h-.456l2.616-7.128c.192-.512.44-.864.744-1.056.304-.192.632-.288.984-.288.448 0 .792.112 1.032.336.256.224.4.512.432.864.048.352-.016.736-.192 1.152l-3.36 8.376c-.192.496-.464.864-.816 1.104-.336.24-.744.36-1.224.36a2.12 2.12 0 0 1-1.224-.36c-.336-.24-.608-.608-.816-1.104l-2.88-7.488h1.56l-2.808 7.464c-.192.496-.456.872-.792 1.128-.336.24-.744.36-1.224.36Zm21.663.048c-1.392 0-2.592-.248-3.6-.744-.992-.512-1.76-1.224-2.304-2.136-.528-.928-.792-2.016-.792-3.264 0-1.216.256-2.28.768-3.192a5.44 5.44 0 0 1 2.136-2.16c.928-.528 1.976-.792 3.144-.792.848 0 1.616.144 2.304.432.688.272 1.28.672 1.776 1.2.496.512.872 1.144 1.128 1.896.256.736.384 1.56.384 2.472 0 .304-.096.536-.288.696-.192.144-.472.216-.84.216h-7.536v-1.872h6.048l-.384.336c0-.656-.096-1.2-.288-1.632-.192-.448-.472-.784-.84-1.008-.352-.224-.792-.336-1.32-.336-.592 0-1.096.136-1.512.408-.416.272-.736.664-.96 1.176-.224.512-.336 1.128-.336 1.848V18c0 1.216.28 2.112.84 2.688.576.576 1.424.864 2.544.864.384 0 .824-.048 1.32-.144.496-.096.96-.248 1.392-.456.368-.176.696-.232.984-.168.288.048.512.176.672.384.16.208.248.448.264.72.032.272-.024.544-.168.816-.144.256-.384.472-.72.648a6.49 6.49 0 0 1-1.848.672c-.672.16-1.328.24-1.968.24Zm14.323 0c-.944 0-1.784-.232-2.52-.696-.72-.48-1.2-1.112-1.44-1.896l.264-.792v1.488c0 .592-.152 1.048-.456 1.368-.304.32-.744.48-1.32.48-.576 0-1.024-.16-1.344-.48-.304-.32-.456-.776-.456-1.368V8.712c0-.608.152-1.064.456-1.368.32-.32.776-.48 1.368-.48.576 0 1.016.16 1.32.48.32.304.48.76.48 1.368V14.4h-.288c.256-.72.744-1.304 1.464-1.752.72-.448 1.544-.672 2.472-.672 1.04 0 1.944.248 2.712.744.768.496 1.368 1.2 1.8 2.112.432.912.648 2 .648 3.264 0 1.264-.216 2.36-.648 3.288-.432.928-1.04 1.64-1.824 2.136-.768.496-1.664.744-2.688.744Zm-1.08-2.712c.512 0 .96-.128 1.344-.384.4-.256.704-.632.912-1.128.224-.512.336-1.16.336-1.944 0-1.168-.24-2.024-.72-2.568-.48-.56-1.104-.84-1.872-.84-.512 0-.968.12-1.368.36-.384.24-.688.616-.912 1.128-.224.496-.336 1.136-.336 1.92 0 1.168.24 2.04.72 2.616.48.56 1.112.84 1.896.84Z"/></svg>