<svg xmlns="http://www.w3.org/2000/svg" width="400" height="335" fill="none"><path fill="#232930" d="M372.175 68.302c7.16 0 12.965-5.804 12.965-12.965 0-7.16-5.805-12.964-12.965-12.964s-12.964 5.804-12.964 12.965c0 7.16 5.804 12.964 12.964 12.964Zm18.972-50.594a8.854 8.854 0 1 0-8.854-8.854 8.854 8.854 0 0 0 8.854 8.854ZM70.518 67.986a8.854 8.854 0 1 0 0-17.708 8.854 8.854 0 0 0 0 17.708ZM16.443 238.734c9.08 0 16.442-7.362 16.442-16.443 0-9.081-7.361-16.442-16.442-16.442S0 213.21 0 222.291s7.362 16.443 16.443 16.443Z"/><g filter="url(#a)"><path fill="#1B212A" d="M369.066 81.525V256.72c0 7.292-5.837 13.069-12.992 13.069H92.184c-7.155 0-13.086-5.872-13.086-13.069V81.525c0-7.197 5.837-13.068 13.086-13.068h263.89c7.155 0 12.992 5.871 12.992 13.069Z"/></g><path fill="#232930" d="M369.066 81.525v19.603H79.098V81.525c0-7.197 5.837-13.068 13.086-13.068h263.89c7.155 0 12.992 5.871 12.992 13.069Z" opacity=".5"/><path fill="#989FB0" d="M97.368 89.67c2.704 0 4.896-2.205 4.896-4.924 0-2.72-2.192-4.925-4.896-4.925-2.703 0-4.895 2.205-4.895 4.925 0 2.72 2.192 4.924 4.895 4.924Zm16 0c2.704 0 4.896-2.205 4.896-4.924 0-2.72-2.192-4.925-4.896-4.925-2.704 0-4.895 2.205-4.895 4.925 0 2.72 2.191 4.924 4.895 4.924Zm15.914 0c2.704 0 4.896-2.205 4.896-4.924 0-2.72-2.192-4.925-4.896-4.925-2.703 0-4.895 2.205-4.895 4.925 0 2.72 2.192 4.924 4.895 4.924Z"/><path stroke="#2A2E37" stroke-linecap="round" stroke-linejoin="round" stroke-miterlimit="10" stroke-width="2" d="M139.641 220.449h168.897m-142.257 18.09h115.611" opacity=".6"/><path fill="url(#b)" d="M195.839 169.501v9.754h-5.932v9.375h-11.109v-9.375H154.32V168.08l22.689-31.724h12.993v33.24h5.837v-.095Zm-17.041-20.171-14.122 20.171h14.122V149.33Z"/><path fill="url(#c)" d="M223.706 189.672c-11.863 0-22.313-10.417-22.313-27.274 0-16.856 10.356-27.273 22.313-27.273 11.956 0 22.312 10.417 22.312 27.273 0 16.857-10.356 27.274-22.312 27.274Zm0-10.038c5.554 0 11.109-5.588 11.109-17.141 0-11.553-5.555-17.14-11.109-17.14-5.555 0-11.11 5.587-11.11 17.14s5.555 17.141 11.11 17.141Z"/><path fill="url(#d)" d="M293.938 169.501v9.754h-5.931v9.375h-11.109v-9.375H252.42V168.08l22.689-31.724h12.992v33.24h5.837v-.095Zm-17.134-20.171-14.122 20.171h14.122V149.33Z"/><path fill="#fff" fill-opacity=".15" d="m356.249 308.472-63.073-63.023 14.459-14.46 63.023 63.073-14.409 14.41Z"/><path fill="#fff" fill-opacity=".15" d="m378.175 330.646-48.365-48.364c-4.038-4.039-4.038-10.621 0-14.659 4.039-4.039 10.62-4.039 14.659 0l48.364 48.364c4.039 4.039 4.039 10.62 0 14.659-4.038 4.039-10.62 4.039-14.658 0Z"/><path fill="#232930" d="m374.736 333.739-62.226-62.226c-1.446-1.446-1.446-3.789 0-5.285l15.906-15.905c1.446-1.446 3.789-1.446 5.285 0l62.225 62.225c1.446 1.446 1.446 3.789 0 5.285l-15.905 15.906c-1.496 1.446-3.839 1.446-5.285 0ZM221.776 42.37c-66.014 0-119.514 53.499-119.514 119.514 0 65.965 53.5 119.514 119.465 119.514 66.014 0 119.514-53.499 119.514-119.514 0-66.015-53.5-119.515-119.465-119.515Zm0 216.891c-53.001 0-95.93-43.628-95.93-97.427 0-53.799 42.929-97.377 95.93-97.377 53.002 0 95.931 43.628 95.931 97.427 0 53.799-42.979 97.377-95.931 97.377Z"/><defs><linearGradient id="b" x1="246.525" x2="256.957" y1="135.125" y2="189.672" gradientUnits="userSpaceOnUse"><stop stop-color="#B0BACC"/><stop offset="1" stop-color="#969EAE"/></linearGradient><linearGradient id="c" x1="246.525" x2="256.957" y1="135.125" y2="189.672" gradientUnits="userSpaceOnUse"><stop stop-color="#B0BACC"/><stop offset="1" stop-color="#969EAE"/></linearGradient><linearGradient id="d" x1="246.525" x2="256.957" y1="135.125" y2="189.672" gradientUnits="userSpaceOnUse"><stop stop-color="#B0BACC"/><stop offset="1" stop-color="#969EAE"/></linearGradient><filter id="a" width="333.969" height="245.33" x="57.098" y="57.457" color-interpolation-filters="sRGB" filterUnits="userSpaceOnUse"><feFlood flood-opacity="0" result="BackgroundImageFix"/><feColorMatrix in="SourceAlpha" result="hardAlpha" values="0 0 0 0 0 0 0 0 0 0 0 0 0 0 0 0 0 0 127 0"/><feOffset dy="11"/><feGaussianBlur stdDeviation="11"/><feColorMatrix values="0 0 0 0 0 0 0 0 0 0 0 0 0 0 0 0 0 0 0.27 0"/><feBlend in2="BackgroundImageFix" result="effect1_dropShadow_10751_701"/><feBlend in="SourceGraphic" in2="effect1_dropShadow_10751_701" result="shape"/></filter></defs></svg>