<svg xmlns="http://www.w3.org/2000/svg" width="131" height="36" fill="none"><path fill="#C4FC00" d="M20.066 4.781c0 2.64-2.044 4.782-4.566 4.782s-4.566-2.141-4.566-4.782C10.934 2.141 12.978 0 15.5 0s4.566 2.14 4.566 4.781Zm8.65 10.75c-2.184 1.32-4.977.537-6.238-1.75-1.26-2.287-.512-5.21 1.672-6.531 2.184-1.32 4.977-.537 6.238 1.75 1.26 2.287.512 5.211-1.672 6.531ZM.613 27c1.26 2.287 4.053 3.07 6.237 1.75 2.184-1.32 2.932-4.244 1.671-6.531-1.26-2.287-4.053-3.07-6.237-1.75C.1 21.789-.648 24.713.613 27Zm28.103-6.531c-2.184-1.32-4.977-.537-6.238 1.75-1.26 2.287-.512 5.21 1.672 6.531 2.184 1.32 4.977.537 6.238-1.75 1.26-2.287.512-5.21-1.672-6.531Z"/><path fill="#C4FC00" d="M6.85 7.25C4.666 5.93 1.873 6.713.613 9c-1.261 2.287-.513 5.211 1.67 6.531a4.381 4.381 0 0 0 4.388.103c.93-.503 2.064-.779 2.97-.231l.31.187c.693.42.983 1.29.983 2.129 0 1.63.779 3.069 1.968 3.932.819.594 1.544 1.458 1.544 2.501v.633c0 1.044-.725 1.907-1.544 2.501-1.19.863-1.968 2.303-1.968 3.933 0 2.64 2.044 4.781 4.566 4.781s4.566-2.14 4.566-4.781c0-1.62-.77-3.053-1.947-3.917-.81-.595-1.525-1.454-1.525-2.49v-.687c0-1.035.715-1.895 1.525-2.49 1.178-.864 1.947-2.296 1.947-3.916 0-2.64-2.044-4.782-4.566-4.782-.681 0-1.328.157-1.908.437-.891.43-1.95.641-2.799.127l-.401-.242c-.814-.492-1.176-1.494-1.295-2.47-.174-1.43-.962-2.762-2.247-3.54Z"/><path fill="#fff" d="M54.946 15.815c0 1.523-.13 2.88-.325 4.04a13.298 13.298 0 0 1-1.14 3.377c-.553 1.093-1.366 1.92-2.473 2.516-1.106.596-2.44.894-4.035.894-1.302 0-2.44-.198-3.417-.596-.976-.397-1.757-.96-2.31-1.622-.586-.662-1.042-1.457-1.367-2.45a13.889 13.889 0 0 1-.716-2.948c-.13-.96-.163-2.052-.163-3.245 0-1.192.032-2.251.163-3.245.13-.96.358-1.92.716-2.913.325-.994.78-1.822 1.366-2.484.554-.662 1.335-1.192 2.311-1.59.976-.397 2.115-.628 3.417-.628 1.595 0 2.929.298 4.035.894a5.902 5.902 0 0 1 2.473 2.516 14.006 14.006 0 0 1 1.14 3.41c.195 1.193.325 2.55.325 4.074Zm-4.198 0c0-.96-.065-1.822-.163-2.583a10.65 10.65 0 0 0-.52-2.186c-.26-.695-.619-1.225-1.14-1.622-.52-.398-1.171-.596-1.952-.596-.781 0-1.465.198-1.985.596-.52.397-.911.927-1.172 1.622-.26.729-.423 1.457-.52 2.186-.098.728-.13 1.59-.13 2.55 0 .993.032 1.854.13 2.582a9.87 9.87 0 0 0 .52 2.153c.26.728.651 1.258 1.172 1.655.52.398 1.204.563 1.985.563.781 0 1.432-.165 1.953-.563.52-.397.878-.927 1.139-1.655a9.87 9.87 0 0 0 .52-2.153c.098-.728.163-1.556.163-2.55Zm20.092 2.152c0 1.159-.098 2.218-.293 3.179a12.298 12.298 0 0 1-.879 2.748c-.39.861-.976 1.556-1.757 2.02-.78.497-1.692.728-2.766.728-1.497 0-2.701-.53-3.612-1.622V33h-3.938V9.424h1.985l.651 2.285c1.106-1.69 2.701-2.55 4.784-2.55 1.041 0 1.985.265 2.766.795a5.33 5.33 0 0 1 1.822 2.086c.423.86.749 1.788.944 2.781.195.994.293 2.02.293 3.146Zm-4.035 0c0-.729-.033-1.358-.098-1.887a9.31 9.31 0 0 0-.358-1.59c-.195-.53-.456-.927-.846-1.192a2.426 2.426 0 0 0-1.4-.43c-.52 0-.943.132-1.268.33a2.284 2.284 0 0 0-.749.73c-.163.264-.293.661-.39 1.191-.098.53-.163.994-.163 1.325v2.98c0 .364.065.794.163 1.258.097.497.227.894.39 1.16.163.264.423.496.748.694.326.2.716.298 1.205.298.585 0 1.04-.099 1.431-.364s.651-.629.847-1.126a6.16 6.16 0 0 0 .39-1.523c.065-.497.098-1.126.098-1.854Zm14.435 8.576c-.39.066-.944.066-1.66.066-2.082 0-3.514-.43-4.36-1.324-.846-.894-1.237-2.418-1.237-4.537V13.1h-1.855v-2.185l1.855-1.358v-4.37h3.938v4.238h3.32V13.1h-3.255v7.616c0 .861.163 1.457.488 1.722.325.298.976.43 1.953.43h.358c.195 0 .325-.033.455-.033v3.709Zm5.62-.165h-4.002V9.424h4.003v16.954Zm.391-21.027c0 .828-.195 1.424-.586 1.788-.39.364-.976.53-1.822.53-.846 0-1.432-.166-1.822-.53-.39-.364-.554-.96-.554-1.788 0-.795.163-1.39.554-1.788.39-.364.976-.563 1.822-.563.846 0 1.432.199 1.822.563.39.397.586.993.586 1.788Zm15.431 4.073-5.044 16.953h-4.621L87.973 9.424h4.393l2.961 12.318L98.29 9.424h4.393Zm13.678 16.954h-1.952l-.651-2.153c-.586.861-1.237 1.457-1.953 1.854-.716.398-1.66.563-2.766.563s-1.985-.198-2.701-.596c-.716-.397-1.269-.96-1.595-1.755a9.46 9.46 0 0 1-.716-2.483c-.13-.861-.195-1.887-.195-3.146V9.424h3.938v9.602c0 1.391.163 2.385.488 2.948.325.596.911.86 1.757.86.879 0 1.497-.264 1.855-.86.358-.563.553-1.557.553-2.948V9.424h3.938v16.953ZM131 21.212c0 1.39-.488 2.649-1.464 3.775-.977 1.126-2.506 1.655-4.556 1.655-4.426 0-6.607-2.02-6.607-6.06h3.873c0 1.723.879 2.55 2.636 2.55.651 0 1.204-.165 1.595-.496.39-.331.618-.696.618-1.16 0-.661-.391-1.125-1.139-1.423-.391-.133-.944-.298-1.595-.497a51.96 51.96 0 0 1-1.692-.463c-.456-.133-.976-.298-1.497-.563-.553-.265-1.009-.53-1.334-.861-.358-.298-.651-.695-.879-1.225-.228-.53-.325-1.126-.325-1.821 0-1.59.455-2.881 1.432-3.908.943-1.026 2.473-1.556 4.588-1.556 4.003 0 6.021 1.954 6.021 5.795h-3.743c0-1.557-.813-2.351-2.375-2.351-.684 0-1.205.165-1.53.496-.358.332-.521.696-.521 1.126 0 .729.423 1.192 1.302 1.39.13.067.521.166 1.172.299.65.165 1.074.265 1.301.331.196.066.586.166 1.139.364.554.199.944.364 1.172.497.228.165.521.397.911.662.391.265.651.563.814.861.162.331.325.695.455 1.126.13.463.228.927.228 1.457Z"/></svg>